<?xml version="1.0" encoding="utf-8"?>
<!-- Generator: Adobe Illustrator 14.0.0, SVG Export Plug-In . SVG Version: 6.00 Build 43363)  -->
<!DOCTYPE svg PUBLIC "-//W3C//DTD SVG 1.1//EN" "http://www.w3.org/Graphics/SVG/1.1/DTD/svg11.dtd">
<svg version="1.1" id="Ebene_1" xmlns="http://www.w3.org/2000/svg" xmlns:xlink="http://www.w3.org/1999/xlink" x="0px" y="0px"
	 width="80px" height="64.904px" viewBox="0 0 80 64.904" enable-background="new 0 0 80 64.904" xml:space="preserve">
<path fill="#1D1D1B" d="M0,7.301v39.548c0,3.9,3.164,7.063,7.064,7.063h30.288v5.656h-9.391l-0.125-0.009l-0.124,0.009
	c-0.711,0.035-1.375,0.34-1.854,0.87c-0.481,0.521-0.721,1.209-0.688,1.921c0.066,1.426,1.234,2.544,2.667,2.544h24.301
	c1.457,0,2.648-1.186,2.666-2.634c0.016-0.712-0.255-1.385-0.753-1.897c-0.497-0.514-1.16-0.796-1.938-0.804h-9.425v-5.656h30.298
	c3.891,0,7.063-3.163,7.063-7.063V7.301c0-3.902-3.173-7.065-7.063-7.065H7.064C3.164,0.236,0,3.399,0,7.301 M7.064,0.708h65.92
	c3.617,0,6.59,2.974,6.59,6.594v39.548c0,3.619-2.973,6.594-6.59,6.594H42.223v6.592h9.946c1.219,0.016,2.188,1.016,2.17,2.228
	c-0.018,1.217-1.019,2.186-2.228,2.17H27.936c-1.209,0.057-2.244-0.887-2.302-2.096s0.886-2.245,2.096-2.302h10.095v-6.592H7.064
	c-3.62,0-6.593-2.975-6.593-6.594V7.301C0.472,3.682,3.445,0.708,7.064,0.708z"/>
<path fill="#1D1D1B" d="M7.064,49.052h65.92c1.258,0,2.202-0.945,2.202-2.203V7.301c0-1.259-0.944-2.204-2.202-2.204H7.064
	c-1.258,0-2.203,0.944-2.203,2.204v39.548C4.861,48.107,5.806,49.052,7.064,49.052 M5.333,7.301c0-1.003,0.729-1.731,1.731-1.731
	h65.92c0.998,0,1.729,0.729,1.729,1.731v39.548c0,1.002-0.731,1.729-1.729,1.729H7.064c-1.002,0-1.731-0.728-1.731-1.729V7.301z"/>
<path fill="#1D1D1B" d="M60.791,46.227l8.928-0.008c1.451,0,2.645-1.176,2.668-2.626c0.008-0.712-0.258-1.382-0.755-1.897
	c-0.498-0.513-1.16-0.792-1.946-0.81h-9.021c-1.464,0.072-2.606,1.325-2.531,2.791C58.198,45.109,59.366,46.227,60.791,46.227
	 M60.691,41.356h9.061c1.209,0.018,2.179,1.021,2.163,2.229c-0.018,1.217-1.011,2.186-2.229,2.17h-8.786
	c-1.219,0.058-2.245-0.889-2.304-2.096C58.538,42.443,59.482,41.415,60.691,41.356z"/>
<path fill="#1D1D1B" d="M0.472,46.849c0,3.619,2.974,6.594,6.593,6.594h30.76v6.592H27.729c-1.209,0.057-2.154,1.093-2.095,2.302
	c0.058,1.209,1.093,2.152,2.302,2.096h24.176c1.209,0.016,2.212-0.953,2.228-2.17c0.018-1.212-0.951-2.212-2.17-2.228h-9.946v-6.592
	h30.762c3.617,0,6.59-2.975,6.59-6.594V7.301c0-3.62-2.973-6.594-6.59-6.594H7.064c-3.619,0-6.593,2.974-6.593,6.594V46.849
	 M4.861,7.301c0-1.259,0.945-2.204,2.203-2.204h65.92c1.258,0,2.202,0.944,2.202,2.204v39.548c0,1.258-0.944,2.203-2.202,2.203
	H7.064c-1.258,0-2.203-0.945-2.203-2.203V7.301z"/>
<path fill="#1D1D1B" d="M60.899,45.755h8.786c1.219,0.016,2.212-0.953,2.229-2.17c0.016-1.209-0.954-2.212-2.163-2.229h-9.061
	c-1.209,0.059-2.153,1.087-2.096,2.304C58.654,44.867,59.681,45.813,60.899,45.755"/>
</svg>
