<svg xmlns="http://www.w3.org/2000/svg" viewBox="0 0 150 150"><g id="icons"><rect x="19.88" y="4.13" width="110.24" height="30" rx="2.1"/><rect x="19.88" y="48.13" width="110.24" height="30" rx="2.1"/><path d="M27.74,146.45h-21V142l7.53-7.61c2.23-2.28,3.68-3.86,4.37-4.75a10.29,10.29,0,0,0,1.47-2.45,6.23,6.23,0,0,0,.45-2.33,3.42,3.42,0,0,0-1-2.69,3.85,3.85,0,0,0-2.66-.88,7.53,7.53,0,0,0-3.38.8,17.61,17.61,0,0,0-3.43,2.27L6.7,120.32a22.45,22.45,0,0,1,3.67-2.66,13.42,13.42,0,0,1,3.18-1.2A16.28,16.28,0,0,1,17.4,116a11.49,11.49,0,0,1,5,1,7.9,7.9,0,0,1,3.34,2.87,7.66,7.66,0,0,1,1.19,4.23,10.22,10.22,0,0,1-.73,3.88,15.17,15.17,0,0,1-2.25,3.73,55.68,55.68,0,0,1-5.39,5.43l-3.85,3.63v.29H27.74Z"/><path d="M41.66,127.29a9.66,9.66,0,0,1,6.93,2.45,8.77,8.77,0,0,1,2.57,6.68q0,5-3.1,7.73t-8.86,2.71a17.37,17.37,0,0,1-8.08-1.62v-5.48a16.37,16.37,0,0,0,3.78,1.41,16.72,16.72,0,0,0,4.08.54c3.87,0,5.8-1.58,5.8-4.76q0-4.53-6-4.53a14.35,14.35,0,0,0-2.4.22,16.18,16.18,0,0,0-2.13.46l-2.52-1.36,1.13-15.27H49.11v5.37H38.4l-.55,5.89.72-.15A14.1,14.1,0,0,1,41.66,127.29Z"/><path d="M87.77,146.45H81.51V133.06a6.74,6.74,0,0,0-.83-3.72,2.91,2.91,0,0,0-2.61-1.25,3.78,3.78,0,0,0-3.49,1.77c-.72,1.17-1.09,3.11-1.09,5.8v10.79H67.24V123.52H72l.84,2.93h.35A6.37,6.37,0,0,1,75.87,124a8.72,8.72,0,0,1,4-.89c3.43,0,5.76,1.12,7,3.36h.56A6.2,6.2,0,0,1,90.12,124a9,9,0,0,1,4-.88,8,8,0,0,1,5.89,2q2,2,2,6.41v14.95H95.79V133.06a6.74,6.74,0,0,0-.83-3.72,2.94,2.94,0,0,0-2.62-1.25,3.9,3.9,0,0,0-3.44,1.65,9.37,9.37,0,0,0-1.13,5.2Z"/><path d="M129,146.45h-6.26V133.06a6.74,6.74,0,0,0-.83-3.72,2.91,2.91,0,0,0-2.61-1.25,3.79,3.79,0,0,0-3.49,1.77c-.72,1.17-1.09,3.11-1.09,5.8v10.79h-6.25V123.52h4.78l.84,2.93h.35a6.37,6.37,0,0,1,2.66-2.47,8.72,8.72,0,0,1,4-.89c3.43,0,5.76,1.12,7,3.36h.56a6.2,6.2,0,0,1,2.72-2.48,9,9,0,0,1,4-.88,8,8,0,0,1,5.89,2c1.34,1.33,2,3.47,2,6.41v14.95H137V133.06a6.74,6.74,0,0,0-.83-3.72,2.94,2.94,0,0,0-2.62-1.25,3.9,3.9,0,0,0-3.44,1.65,9.37,9.37,0,0,0-1.13,5.2Z"/></g></svg>