<svg xmlns="http://www.w3.org/2000/svg" viewBox="0 0 150 150"><g id="icons"><rect x="19.88" y="36.13" width="110.24" height="20" rx="1.71"/><rect x="19.88" y="68.13" width="110.24" height="20" rx="1.71"/><rect x="19.88" y="4.13" width="110.24" height="20" rx="1.71"/><path d="M22,146.37H15.67V129l.06-2.85.11-3.12c-1.06,1-1.79,1.74-2.2,2.07l-3.44,2.77-3.06-3.82,9.66-7.69H22Z"/><path d="M30.11,133.63q0-8.89,3.76-13.25T45.14,116a21,21,0,0,1,4,.3v5.07a16.66,16.66,0,0,0-3.61-.41,12.48,12.48,0,0,0-5.32,1,6.64,6.64,0,0,0-3.09,2.92,13.52,13.52,0,0,0-1.21,5.47h.27a7,7,0,0,1,6.5-3.49,8.07,8.07,0,0,1,6.3,2.53,10,10,0,0,1,2.27,7,10.49,10.49,0,0,1-2.7,7.6,10,10,0,0,1-7.51,2.8,10.74,10.74,0,0,1-5.79-1.54,10,10,0,0,1-3.82-4.49A17.2,17.2,0,0,1,30.11,133.63Zm10.83,8.08a3.73,3.73,0,0,0,3.11-1.36,6.09,6.09,0,0,0,1.09-3.89,5.39,5.39,0,0,0-1-3.45,3.72,3.72,0,0,0-3.07-1.27A4.67,4.67,0,0,0,37.77,133a3.83,3.83,0,0,0-1.37,2.91A6.58,6.58,0,0,0,37.69,140,3.91,3.91,0,0,0,40.94,141.71Z"/><path d="M87.33,146.37H81.07V133a6.8,6.8,0,0,0-.83-3.73A2.92,2.92,0,0,0,77.63,128a3.78,3.78,0,0,0-3.49,1.77c-.73,1.17-1.09,3.11-1.09,5.8v10.79H66.8V123.44h4.78l.84,2.93h.35a6.31,6.31,0,0,1,2.66-2.47,8.72,8.72,0,0,1,4-.89c3.43,0,5.76,1.12,7,3.36H87a6.23,6.23,0,0,1,2.71-2.48,9.05,9.05,0,0,1,4-.88c2.6,0,4.57.66,5.9,2s2,3.47,2,6.41v15H95.34V133a6.71,6.71,0,0,0-.83-3.73A2.92,2.92,0,0,0,91.9,128a3.92,3.92,0,0,0-3.44,1.64,9.41,9.41,0,0,0-1.13,5.21Z"/><path d="M128.57,146.37h-6.26V133a6.8,6.8,0,0,0-.83-3.73,2.92,2.92,0,0,0-2.61-1.24,3.78,3.78,0,0,0-3.49,1.77c-.72,1.17-1.09,3.11-1.09,5.8v10.79H108V123.44h4.78l.84,2.93H114a6.31,6.31,0,0,1,2.66-2.47,8.72,8.72,0,0,1,4-.89c3.43,0,5.76,1.12,7,3.36h.56a6.23,6.23,0,0,1,2.71-2.48A9.05,9.05,0,0,1,135,123c2.6,0,4.57.66,5.9,2s2,3.47,2,6.41v15h-6.28V133a6.71,6.71,0,0,0-.83-3.73,2.92,2.92,0,0,0-2.61-1.24,3.92,3.92,0,0,0-3.44,1.64,9.41,9.41,0,0,0-1.13,5.21Z"/></g></svg>