<svg xmlns="http://www.w3.org/2000/svg" viewBox="0 0 150 150"><g id="icons"><rect x="19.88" y="4.13" width="110.24" height="64.35" rx="3.07"/><path d="M17.47,127.34a9.65,9.65,0,0,1,6.92,2.44A8.77,8.77,0,0,1,27,136.46q0,5-3.1,7.73T15,146.9a17.4,17.4,0,0,1-8.08-1.62V139.8a16.37,16.37,0,0,0,3.78,1.41,16.72,16.72,0,0,0,4.08.54c3.87,0,5.8-1.58,5.8-4.76q0-4.53-6-4.53a14.35,14.35,0,0,0-2.4.22,18,18,0,0,0-2.13.46l-2.52-1.35,1.13-15.28H24.91v5.37H14.2l-.55,5.89.72-.15A14.26,14.26,0,0,1,17.47,127.34Z"/><path d="M51.32,131.5q0,7.86-2.57,11.63t-7.93,3.77A8.82,8.82,0,0,1,33,143q-2.64-3.88-2.64-11.5,0-7.94,2.57-11.7T40.82,116A8.86,8.86,0,0,1,48.67,120Q51.33,123.92,51.32,131.5Zm-14.66,0q0,5.52,1,7.9a3.34,3.34,0,0,0,6.41,0q1-2.42,1-7.87t-1-7.93a3.32,3.32,0,0,0-6.39,0Q36.66,126,36.66,131.5Z"/><path d="M87.54,146.49H81.29V133.1a6.74,6.74,0,0,0-.83-3.72,2.93,2.93,0,0,0-2.62-1.24,3.79,3.79,0,0,0-3.49,1.76c-.72,1.17-1.08,3.11-1.08,5.8v10.79H67V123.56h4.78l.84,2.93H73A6.4,6.4,0,0,1,75.65,124a8.7,8.7,0,0,1,4-.89q5.14,0,7,3.36h.55A6.25,6.25,0,0,1,89.89,124a9.19,9.19,0,0,1,4-.88,8,8,0,0,1,5.9,2q2,2,2,6.41v15H95.56V133.1a6.74,6.74,0,0,0-.83-3.72,2.92,2.92,0,0,0-2.62-1.24,3.88,3.88,0,0,0-3.43,1.64A9.29,9.29,0,0,0,87.54,135Z"/><path d="M128.78,146.49h-6.25V133.1a6.74,6.74,0,0,0-.83-3.72,2.93,2.93,0,0,0-2.62-1.24,3.79,3.79,0,0,0-3.49,1.76c-.72,1.17-1.08,3.11-1.08,5.8v10.79h-6.26V123.56H113l.84,2.93h.35a6.4,6.4,0,0,1,2.67-2.47,8.7,8.7,0,0,1,4-.89q5.14,0,7,3.36h.55a6.25,6.25,0,0,1,2.72-2.48,9.19,9.19,0,0,1,4.05-.88,8,8,0,0,1,5.9,2q2,2,2,6.41v15H136.8V133.1a6.74,6.74,0,0,0-.83-3.72,2.92,2.92,0,0,0-2.62-1.24,3.88,3.88,0,0,0-3.43,1.64,9.29,9.29,0,0,0-1.14,5.21Z"/></g></svg>