<?xml version="1.0" encoding="utf-8"?>
<!-- Generator: Adobe Illustrator 14.0.0, SVG Export Plug-In . SVG Version: 6.00 Build 43363)  -->
<!DOCTYPE svg PUBLIC "-//W3C//DTD SVG 1.1//EN" "http://www.w3.org/Graphics/SVG/1.1/DTD/svg11.dtd">
<svg version="1.1" id="Ebene_1" xmlns="http://www.w3.org/2000/svg" xmlns:xlink="http://www.w3.org/1999/xlink" x="0px" y="0px"
	 width="80px" height="80px" viewBox="0 0 80 80" enable-background="new 0 0 80 80" xml:space="preserve">
<path fill="#1D1D1B" d="M0,32.242v20.575c0.007,8.473,6.248,15.522,14.595,16.6c0.003,5.036,4.096,9.129,9.125,9.129h32.051
	c5.032,0,9.125-4.093,9.129-9.129c8.347-1.077,14.586-8.127,14.594-16.6V32.242H69.097V14.948C69.097,6.706,62.392,0,54.151,0
	S39.206,6.706,39.206,14.948v4.264h6.806v-4.264c0-4.493,3.653-8.137,8.14-8.137c4.487,0,8.14,3.644,8.14,8.137v17.294H0
	 M54.151,6.267c-4.795,0-8.68,3.883-8.68,8.681v3.72h-5.725v-3.72c0-7.956,6.448-14.405,14.404-14.405
	c7.954,0,14.403,6.449,14.403,14.405v17.838h10.398v20.031c-0.008,8.319-6.314,15.292-14.596,16.122v0.478
	c0,4.741-3.842,8.584-8.586,8.584H23.721c-4.742,0-8.585-3.843-8.585-8.584v-0.478c-8.281-0.83-14.587-7.803-14.595-16.122V32.786
	h62.292V14.948C62.832,10.149,58.946,6.267,54.151,6.267z"/>
<path fill="#1D1D1B" d="M20.859,69.417c0,1.583,1.281,2.862,2.861,2.862h32.051c1.583,0,2.863-1.279,2.863-2.862v-0.382H20.859
	V69.417 M58.089,69.578c-0.081,1.202-1.09,2.156-2.317,2.156H23.721c-1.225,0-2.232-0.954-2.314-2.156H58.089z"/>
<path fill="#1D1D1B" d="M6.265,52.818c0,5.79,4.698,10.494,10.493,10.494h45.98c5.794,0,10.494-4.704,10.494-10.494V38.51H6.265
	V52.818 M6.805,39.054h65.883v13.765c0,5.486-4.464,9.949-9.951,9.949h-45.98c-5.488,0-9.952-4.463-9.952-9.949V39.054z"/>
<path fill="#1D1D1B" d="M0.541,32.786v20.031c0.008,8.319,6.314,15.292,14.595,16.122v0.478c0,4.741,3.843,8.584,8.585,8.584h32.051
	c4.744,0,8.586-3.843,8.586-8.584v-0.478c8.281-0.83,14.588-7.803,14.596-16.122V32.786H68.555V14.948
	c0-7.956-6.449-14.404-14.403-14.404c-7.956,0-14.404,6.448-14.404,14.404v3.721h5.725v-3.721c0-4.798,3.885-8.68,8.68-8.68
	s8.681,3.882,8.681,8.68v17.838H0.541 M58.635,69.417c0,1.583-1.28,2.862-2.863,2.862H23.721c-1.58,0-2.861-1.279-2.861-2.862
	v-0.383h37.775V69.417z M73.231,38.509v14.309c0,5.791-4.7,10.494-10.494,10.494h-45.98c-5.795,0-10.493-4.703-10.493-10.494V38.509
	H73.231z"/>
</svg>
