<?xml version="1.0" encoding="utf-8"?>
<!-- Generator: Adobe Illustrator 14.0.0, SVG Export Plug-In . SVG Version: 6.00 Build 43363)  -->
<!DOCTYPE svg PUBLIC "-//W3C//DTD SVG 1.1//EN" "http://www.w3.org/Graphics/SVG/1.1/DTD/svg11.dtd">
<svg version="1.1" id="Ebene_1" xmlns="http://www.w3.org/2000/svg" xmlns:xlink="http://www.w3.org/1999/xlink" x="0px" y="0px"
	 width="59.035px" height="80px" viewBox="0 0 59.035 80" enable-background="new 0 0 59.035 80" xml:space="preserve">
<path fill="#1D1D1B" d="M12.624,2.609c-0.08-0.765-0.444-1.461-1.035-1.948C11.075,0.235,10.422,0,9.753,0
	C8.892,0,8.083,0.383,7.536,1.053C2.874,6.696,0.3,13.854,0.3,21.194c0,7.401,2.609,14.602,7.349,20.281
	c3.879,4.645,6.01,10.531,6.01,16.594c0,6-2.104,11.854-5.914,16.48c-0.488,0.59-0.722,1.338-0.644,2.104
	c0.07,0.766,0.435,1.461,1.026,1.947c0.522,0.426,1.166,0.662,1.835,0.662c0.861,0,1.669-0.385,2.217-1.055
	c4.67-5.652,7.236-12.801,7.236-20.139c0-7.402-2.609-14.611-7.34-20.282c-3.878-4.645-6.018-10.54-6.018-16.593
	c0-6.009,2.104-11.862,5.923-16.48C12.466,4.123,12.692,3.375,12.624,2.609 M5.571,21.194c0,6.174,2.174,12.175,6.122,16.906
	c4.661,5.583,7.227,12.679,7.227,19.968c0,7.225-2.521,14.262-7.113,19.828c-0.479,0.572-1.157,0.869-1.844,0.869
	c-0.54,0-1.07-0.184-1.522-0.549c-1.009-0.834-1.157-2.34-0.313-3.357c3.878-4.713,6.027-10.67,6.027-16.791
	c0-6.176-2.174-12.176-6.124-16.908c-4.669-5.591-7.235-12.679-7.235-19.966c0-7.227,2.531-14.271,7.123-19.828
	c0.834-1.018,2.339-1.166,3.356-0.322c1.017,0.834,1.156,2.339,0.322,3.357C7.71,9.106,5.571,15.071,5.571,21.194z"/>
<path fill="#1D1D1B" d="M11.275,1.044C10.258,0.2,8.753,0.348,7.919,1.366C3.327,6.922,0.796,13.967,0.796,21.194
	c0,7.288,2.565,14.375,7.235,19.966c3.949,4.732,6.124,10.732,6.124,16.908c0,6.121-2.149,12.078-6.027,16.791
	c-0.843,1.018-0.696,2.523,0.313,3.357c0.452,0.365,0.982,0.549,1.522,0.549c0.687,0,1.365-0.297,1.844-0.869
	c4.592-5.566,7.113-12.604,7.113-19.828c0-7.289-2.565-14.385-7.227-19.968C7.744,33.369,5.57,27.368,5.57,21.194
	c0-6.123,2.14-12.088,6.027-16.792C12.432,3.383,12.292,1.878,11.275,1.044"/>
<path fill="#1D1D1B" d="M32.409,2.609c-0.079-0.765-0.444-1.461-1.036-1.948C30.859,0.235,30.208,0,29.539,0
	c-0.862,0-1.67,0.383-2.218,1.053c-4.662,5.644-7.236,12.801-7.236,20.141c0,7.401,2.609,14.602,7.349,20.281
	c3.87,4.645,6.01,10.531,6.01,16.594c0,6.008-2.104,11.854-5.913,16.48c-0.497,0.59-0.722,1.338-0.653,2.104
	c0.078,0.766,0.443,1.461,1.035,1.947c0.521,0.426,1.166,0.662,1.834,0.662c0.861,0,1.67-0.385,2.218-1.055
	c4.67-5.652,7.235-12.801,7.235-20.139c0-7.402-2.609-14.611-7.348-20.282c-3.871-4.645-6.01-10.54-6.01-16.593
	c0-6.009,2.105-11.862,5.923-16.48C32.251,4.123,32.477,3.375,32.409,2.609 M25.355,21.194c0,6.174,2.175,12.175,6.123,16.906
	c4.661,5.583,7.227,12.679,7.227,19.968c0,7.225-2.531,14.262-7.113,19.828c-0.479,0.572-1.157,0.869-1.845,0.869
	c-0.539,0-1.079-0.184-1.521-0.549c-1.018-0.834-1.157-2.34-0.322-3.357c3.886-4.713,6.028-10.67,6.028-16.791
	c0-6.176-2.175-12.176-6.125-16.908c-4.66-5.591-7.226-12.679-7.226-19.966c0-7.227,2.531-14.271,7.123-19.828
	c0.834-1.018,2.339-1.166,3.356-0.322c1.018,0.834,1.156,2.339,0.321,3.357C27.495,9.106,25.355,15.071,25.355,21.194z"/>
<path fill="#1D1D1B" d="M31.06,1.044c-1.018-0.844-2.522-0.696-3.356,0.322c-4.592,5.557-7.123,12.602-7.123,19.828
	c0,7.288,2.565,14.375,7.226,19.966c3.949,4.732,6.123,10.732,6.123,16.908c0,6.121-2.14,12.078-6.026,16.791
	c-0.835,1.018-0.696,2.523,0.322,3.357c0.443,0.365,0.983,0.549,1.521,0.549c0.688,0,1.365-0.297,1.845-0.869
	c4.582-5.566,7.113-12.604,7.113-19.828c0-7.289-2.565-14.385-7.227-19.968c-3.949-4.731-6.124-10.732-6.124-16.906
	c0-6.123,2.141-12.088,6.027-16.792C32.216,3.383,32.078,1.878,31.06,1.044"/>
<path fill="#1D1D1B" d="M46.661,76.652c0.079,0.764,0.444,1.461,1.035,1.947c0.514,0.426,1.167,0.662,1.836,0.662
	c0.861,0,1.67-0.385,2.217-1.055c4.671-5.652,7.236-12.801,7.236-20.141c0-7.4-2.609-14.609-7.35-20.28
	c-3.87-4.645-6.009-10.531-6.009-16.593c0-6.009,2.104-11.862,5.915-16.48c0.495-0.591,0.721-1.339,0.651-2.104
	c-0.078-0.765-0.444-1.461-1.035-1.948C50.644,0.235,49.993,0,49.323,0c-0.861,0-1.67,0.383-2.218,1.053
	c-4.671,5.644-7.236,12.801-7.236,20.141c0,7.401,2.609,14.609,7.35,20.281c3.87,4.645,6.01,10.541,6.01,16.592
	c0,6.01-2.105,11.855-5.923,16.482C46.819,75.139,46.592,75.887,46.661,76.652 M53.714,58.066c0-6.174-2.173-12.176-6.123-16.906
	c-4.66-5.591-7.226-12.679-7.226-19.966c0-7.227,2.53-14.271,7.113-19.828c0.843-1.018,2.349-1.166,3.366-0.322
	c1.017,0.834,1.156,2.339,0.321,3.357c-3.888,4.705-6.027,10.67-6.027,16.792c0,6.174,2.175,12.175,6.123,16.906
	c4.661,5.583,7.227,12.679,7.227,19.966c0,7.227-2.531,14.264-7.122,19.83c-0.47,0.572-1.148,0.869-1.835,0.869
	c-0.54,0-1.079-0.184-1.521-0.549c-1.018-0.834-1.157-2.34-0.323-3.357C51.575,70.146,53.714,64.189,53.714,58.066z"/>
<path fill="#1D1D1B" d="M48.01,78.217c0.442,0.365,0.981,0.549,1.521,0.549c0.687,0,1.365-0.297,1.835-0.869
	c4.591-5.566,7.122-12.604,7.122-19.828c0-7.289-2.565-14.385-7.227-19.968c-3.948-4.731-6.123-10.732-6.123-16.906
	c0-6.123,2.14-12.088,6.027-16.792c0.835-1.018,0.695-2.523-0.321-3.357c-1.018-0.844-2.523-0.696-3.366,0.322
	c-4.583,5.557-7.113,12.602-7.113,19.828c0,7.288,2.565,14.375,7.226,19.966c3.949,4.732,6.123,10.732,6.123,16.908
	c0,6.121-2.14,12.078-6.027,16.791C46.853,75.877,46.993,77.383,48.01,78.217"/>
</svg>
