<?xml version="1.0" encoding="utf-8"?>
<!-- Generator: Adobe Illustrator 14.0.0, SVG Export Plug-In . SVG Version: 6.00 Build 43363)  -->
<!DOCTYPE svg PUBLIC "-//W3C//DTD SVG 1.1//EN" "http://www.w3.org/Graphics/SVG/1.1/DTD/svg11.dtd">
<svg version="1.1" id="Ebene_1" xmlns="http://www.w3.org/2000/svg" xmlns:xlink="http://www.w3.org/1999/xlink" x="0px" y="0px"
	 width="80px" height="80px" viewBox="0 0 80 80" enable-background="new 0 0 80 80" xml:space="preserve">
<path fill="#1D1D1B" d="M15.56,50.337c8.379,4.311,15.544,5.208,20.077,5.208c5.332,0,8.906-1.215,10.345-2.268
	c3.327-2.414,4.596-4.634,6.065-7.202c1.493-2.615,3.188-5.586,7.079-8.898c2.329-1.973,4.666-3.256,6.731-4.386
	c2.847-1.555,5.099-2.786,6.808-5.354c0.612-0.914,2.515-4.186,1.548-8.015c-0.844-3.319-3.637-6.259-8.302-8.72
	C59.59,7.375,53.339,5.62,47.831,5.62c-3.869,0-7.25,0.858-9.788,2.483c-4.031,2.591-5.725,4.982-7.365,7.304
	c-1.308,1.833-2.655,3.736-4.959,5.508c-3.049,2.345-5.377,3.529-7.621,4.673c-2.716,1.385-5.276,2.686-9.261,6.136
	c-2.104,1.834-3.126,4.526-2.777,7.404C6.578,43.414,10.044,47.506,15.56,50.337 M9.124,32.056c3.945-3.412,6.483-4.704,9.167-6.074
	c2.268-1.152,4.604-2.344,7.699-4.719c2.352-1.81,3.722-3.737,5.044-5.609c1.618-2.274,3.288-4.634,7.25-7.18
	c2.46-1.586,5.763-2.422,9.547-2.422c5.438,0,11.62,1.749,17.879,5.045c4.542,2.398,7.265,5.23,8.077,8.433
	c0.929,3.652-0.905,6.793-1.485,7.667c-1.656,2.476-3.86,3.683-6.669,5.222c-2.082,1.138-4.441,2.43-6.793,4.426
	c-3.946,3.356-5.663,6.36-7.18,9.005c-1.439,2.529-2.677,4.712-5.935,7.079c-1.393,1.005-4.866,2.182-10.089,2.182
	c-4.487,0-11.574-0.897-19.875-5.16c-5.392-2.77-8.766-6.739-9.261-10.878C6.168,36.35,7.127,33.789,9.124,32.056z"/>
<path fill="#1D1D1B" d="M68.479,5.828C61.37,2.083,54.229,0.103,47.831,0.103c-4.929,0-9.339,1.161-12.766,3.358
	c-4.937,3.172-7.041,6.135-8.89,8.758c-1.161,1.64-2.166,3.056-3.813,4.325c-2.655,2.035-4.651,3.057-6.77,4.131
	c-2.886,1.47-5.864,2.987-10.36,6.878c-3.087,2.677-4.781,6.421-4.75,10.545v17.694c-0.039,6.87,4.542,13.176,12.556,17.291
	c9.354,4.806,17.469,5.812,22.63,5.812c5.625,0,10.692-1.239,13.555-3.312c4.294-3.118,5.98-6.081,7.621-8.944
	c1.385-2.438,2.7-4.734,5.856-7.42c1.896-1.608,3.876-2.699,5.804-3.744c3.086-1.687,6.281-3.435,8.749-7.141
	c1.036-1.556,2.777-4.79,2.747-8.975V21.65c0-1.122-0.178-2.53-0.441-3.582C78.313,13.163,74.585,9.047,68.479,5.828 M79.559,39.359
	c0.031,4.077-1.663,7.218-2.669,8.734c-2.406,3.605-5.555,5.331-8.596,6.994c-1.941,1.061-3.953,2.158-5.88,3.799
	c-3.219,2.73-4.549,5.067-5.958,7.536c-1.616,2.823-3.279,5.748-7.488,8.805c-2.568,1.856-7.304,3.232-13.3,3.232
	c-6.405,0-14.251-1.563-22.429-5.764C5.371,68.658,0.884,62.492,0.915,55.8V38.091c-0.022-3.954,1.602-7.606,4.604-10.205
	c4.456-3.853,7.412-5.362,10.275-6.824c2.135-1.083,4.154-2.112,6.831-4.17c1.702-1.307,2.723-2.754,3.907-4.425
	c1.834-2.584,3.907-5.516,8.773-8.634c3.35-2.15,7.683-3.296,12.526-3.296c6.335,0,13.399,1.965,20.447,5.679
	c5.988,3.157,9.641,7.18,10.855,11.961c0.277,1.106,0.425,2.491,0.425,3.474C79.559,21.65,79.559,38.98,79.559,39.359z"/>
<path fill="#1D1D1B" d="M74.476,33.092c-1.927,1.818-4.076,3.01-6.182,4.163c-1.941,1.06-3.953,2.159-5.88,3.799
	c-3.219,2.731-4.549,5.067-5.958,7.543c-1.616,2.824-3.279,5.741-7.488,8.797c-2.801,2.027-7.783,3.234-13.33,3.234
	c-5.099,0-13.114-0.998-22.398-5.765c-3.149-1.624-5.494-3.42-7.242-5.229v6.259c0.007,4.696,3.489,9.168,9.563,12.286
	c14.259,7.327,26.854,5.531,30.421,2.94c3.327-2.414,4.596-4.635,6.065-7.211c1.493-2.615,3.188-5.578,7.079-8.89
	c2.329-1.973,4.666-3.258,6.731-4.387c2.847-1.555,5.099-2.785,6.808-5.354c0.558-0.827,1.842-3.056,1.818-5.887h0.077
	c-0.077-0.758-0.077-1.687-0.085-2.786V33.092 M74.043,39.39c0.023,2.708-1.207,4.851-1.741,5.648
	c-1.655,2.476-3.86,3.683-6.669,5.222c-2.081,1.139-4.441,2.423-6.793,4.427c-3.946,3.357-5.663,6.351-7.18,9.005
	c-1.439,2.53-2.686,4.711-5.935,7.071c-1.384,1.006-4.835,2.182-10.003,2.182c-4.533,0-11.675-0.897-19.961-5.153
	c-5.918-3.04-9.315-7.38-9.323-11.969v-5.144c1.826,1.725,4.039,3.256,6.599,4.571c9.362,4.813,17.455,5.819,22.6,5.819
	c5.64,0,10.715-1.238,13.585-3.319c4.294-3.119,5.98-6.081,7.621-8.943c1.385-2.438,2.7-4.736,5.856-7.42
	c1.888-1.61,3.868-2.692,5.804-3.745c1.756-0.96,3.72-2.043,5.539-3.567v2.607c0,0.852,0,1.602,0.038,2.259h-0.038V39.39z"/>
<path fill="#1D1D1B" d="M68.278,6.215C61.23,2.501,54.166,0.536,47.831,0.536c-4.844,0-9.176,1.146-12.526,3.296
	c-4.867,3.118-6.939,6.05-8.773,8.634c-1.184,1.671-2.206,3.118-3.907,4.425c-2.677,2.058-4.696,3.087-6.831,4.17
	c-2.863,1.462-5.819,2.971-10.275,6.824c-3.002,2.599-4.626,6.251-4.604,10.205V55.8c-0.031,6.692,4.457,12.858,12.325,16.896
	c8.178,4.201,16.023,5.764,22.429,5.764c5.996,0,10.731-1.376,13.3-3.232c4.209-3.057,5.872-5.981,7.488-8.805
	c1.409-2.469,2.739-4.806,5.958-7.536c1.927-1.641,3.938-2.738,5.88-3.799c3.041-1.663,6.189-3.389,8.596-6.994
	c1.006-1.517,2.7-4.657,2.669-8.734c0-0.379,0-17.709,0-17.709c0-0.983-0.147-2.368-0.426-3.474
	C77.919,13.395,74.267,9.372,68.278,6.215 M8.837,31.723c3.985-3.45,6.545-4.75,9.261-6.136c2.244-1.144,4.572-2.328,7.621-4.673
	c2.305-1.771,3.651-3.675,4.959-5.508c1.64-2.321,3.334-4.712,7.365-7.303c2.538-1.625,5.918-2.483,9.788-2.483
	c5.508,0,11.759,1.756,18.08,5.083c4.665,2.46,7.458,5.4,8.302,8.72c0.967,3.83-0.936,7.102-1.548,8.015
	c-1.709,2.568-3.961,3.799-6.808,5.354c-2.065,1.13-4.402,2.414-6.731,4.386c-3.892,3.312-5.586,6.283-7.079,8.898
	c-1.47,2.568-2.738,4.788-6.065,7.202c-1.438,1.053-5.013,2.268-10.345,2.268c-4.533,0-11.698-0.897-20.077-5.208
	c-5.516-2.831-8.982-6.923-9.5-11.21C5.711,36.249,6.733,33.557,8.837,31.723z M74.483,39.39c0.023,2.832-1.262,5.06-1.818,5.887
	c-1.709,2.569-3.961,3.8-6.808,5.354c-2.065,1.129-4.402,2.414-6.731,4.387c-3.892,3.312-5.586,6.274-7.079,8.89
	c-1.47,2.576-2.738,4.797-6.065,7.211c-3.566,2.591-16.162,4.387-30.421-2.94c-6.073-3.118-9.555-7.59-9.562-12.286v-6.259
	c1.748,1.81,4.093,3.605,7.241,5.229c9.284,4.767,17.299,5.765,22.397,5.765c5.548,0,10.53-1.207,13.331-3.234
	c4.209-3.056,5.872-5.973,7.488-8.797c1.409-2.476,2.739-4.812,5.958-7.543c1.927-1.64,3.938-2.739,5.88-3.799
	c2.105-1.153,4.255-2.344,6.182-4.163v3.512c0.008,1.099,0.008,2.027,0.085,2.786H74.483z"/>
</svg>
