<?xml version="1.0" encoding="utf-8"?>
<!-- Generator: Adobe Illustrator 14.0.0, SVG Export Plug-In . SVG Version: 6.00 Build 43363)  -->
<!DOCTYPE svg PUBLIC "-//W3C//DTD SVG 1.1//EN" "http://www.w3.org/Graphics/SVG/1.1/DTD/svg11.dtd">
<svg version="1.1" id="Ebene_1" xmlns="http://www.w3.org/2000/svg" xmlns:xlink="http://www.w3.org/1999/xlink" x="0px" y="0px"
	 width="59.035px" height="80px" viewBox="0 0 59.035 80" enable-background="new 0 0 59.035 80" xml:space="preserve">
<path fill="#1D1D1B" d="M32.617,57.225c3.924,3.163,4.732,5.652,4.708,7.75c1.649-1.468,3.785-4.202,3.807-7.215
	c0.021-2.713-1.687-5.188-5.081-7.346c-5.687-3.62-8.061-8.169-7.077-13.542c-4.657,3.059-11.285,11.489-9.908,19.91
	c0.418,2.566,1.407,4.896,2.832,6.71c0.084-3.163,1.22-9.511,8.413-13.621l1.058-0.608L31.3,50.48
	C31.183,52.578,31.434,56.265,32.617,57.225 M30.124,49.54c-6.603,3.78-8.22,9.387-8.538,12.867
	c-1.06-1.629-1.807-3.586-2.151-5.686c-1.308-8.009,4.777-15.818,9.036-19.028c-0.609,5.148,1.866,9.53,7.378,13.038
	c3.276,2.085,4.929,4.447,4.909,7.028c-0.02,2.543-1.655,4.899-3.099,6.367c-0.198-1.912-1.23-4.308-4.807-7.193
	c-1.007-0.82-1.298-4.321-1.179-6.433l0.107-1.906L30.124,49.54z"/>
<path fill="#1D1D1B" d="M12.854,66.809c4.634,4.117,10.87,6.479,17.109,6.479c12.61,0,23.321-9.035,24.915-21.013
	c0.842-6.309-2.411-12.536-9.7-18.532c-5.608-4.031-1.979-14.905-1.943-15.011l0.368-1.064l-1.105-0.286
	c-0.323-0.078-2.709-0.569-6.138,0.9c0.557-6.241,4.044-11.192,4.08-11.245l0.817-1.138l-1.324-0.45
	c-0.823-0.278-1.758-0.424-2.778-0.424c-5.667,0-13.844,4.467-20.35,11.113C11.902,21.147,3.726,31.685,4.034,45.98
	C4.222,54.645,7.271,61.845,12.854,66.809 M22.983,11.265c6.435-4.712,12.885-6.803,16.826-5.46l0.846,0.285l-0.521,0.729
	c-0.039,0.053-3.82,5.388-4.196,12.066c3.749-1.793,6.36-1.166,6.479-1.138l0.697,0.179l-0.234,0.683
	c-0.039,0.112-3.785,11.225,2.079,15.441l0.036,0.027c7.133,5.871,10.334,11.98,9.514,18.149
	C52.939,64.016,42.388,72.91,29.964,72.91c-6.147,0-12.293-2.328-16.86-6.387c-5.503-4.891-8.51-12-8.695-20.557
	C4.079,30.651,13.787,17.997,22.983,11.265z"/>
<path fill="#1D1D1B" d="M30.514,60.56l-0.369-0.323c-1.103-0.958-1.71-2.257-2.03-3.188c-1.405,1.813-2.429,5.2-2.261,7.856
	c0.002,0.038,0.486,4.103,4.109,4.103c2.685,0,3.336-1.933,3.41-3.554C33.479,63.121,32.104,61.93,30.514,60.56 M29.964,68.635
	c-3.292,0-3.734-3.72-3.736-3.76c-0.145-2.31,0.622-5.2,1.788-7.041c0.372,0.867,0.962,1.887,1.884,2.688l0.37,0.323
	c1.579,1.365,2.827,2.442,2.73,4.587C32.9,67.582,31.908,68.635,29.964,68.635z"/>
<path fill="#1D1D1B" d="M33.994,25.012l-1.07,1.297l-0.101-1.681c-0.044-0.721-0.206-1.45-0.378-2.218
	c-0.601-2.687-1.339-5.989,1.737-12.7c-10.82,2.793-26.65,20.253-25.875,36.084c0.354,7.215,3.371,15.78,10.603,20.228
	c-1.905-2.37-3.203-5.354-3.696-8.617c-1.295-8.565,3.391-16.429,8.211-20.937c3.762-3.513,7.852-5.308,10.665-4.686l0.559,0.12
	l-0.041,0.569c-0.033,0.457-0.281,0.973-0.629,1.688c-1.291,2.694-3.698,7.704,4.347,13.084c4.351,2.92,6.633,6.288,6.777,10.027
	c0.121,3.091-1.249,5.824-2.646,7.783c4.492-3.189,7.467-7.962,8.183-13.344c0.808-6.062-3.619-10.298-8.309-14.785
	c-2.895-2.779-5.822-6.446-4.265-14.977C35.938,22.675,34.014,24.986,33.994,25.012 M37.577,22.557
	c-1.333,8.233,1.478,11.748,4.494,14.634c4.617,4.428,8.979,8.603,8.195,14.467c-0.605,4.554-2.858,8.685-6.332,11.75
	c0.949-1.768,1.636-3.86,1.544-6.15c-0.151-3.865-2.487-7.34-6.944-10.323c-7.774-5.203-5.547-9.836-4.217-12.61
	c0.362-0.754,0.626-1.296,0.665-1.819l0.063-0.893l-0.875-0.198c-3.532-0.781-8.927,2.118-13.125,6.996
	c-4.911,5.712-7.171,12.655-6.204,19.048c0.385,2.548,1.261,4.951,2.536,7.035c-5.901-4.651-8.387-12.41-8.696-18.718
	C7.934,30.499,23.09,13.628,33.51,10.3c-2.742,6.327-2.02,9.563-1.43,12.197c0.166,0.748,0.326,1.463,0.367,2.151l0.16,2.641
	l1.676-2.039C34.301,25.224,35.81,23.424,37.577,22.557z"/>
<path fill="#1D1D1B" d="M37.164,6.725c-3.562,0-8.524,2.039-13.399,5.606C14.838,18.87,5.414,31.128,5.733,45.94
	C6.112,63.56,18.56,71.587,29.964,71.587c11.762,0,21.751-8.399,23.231-19.538c0.757-5.685-2.281-11.384-9.026-16.943
	c-5.733-4.144-3.587-13.39-2.784-16.156c-1.044-0.046-3.162,0.106-5.811,1.622l-0.988,0.563l-0.002-1.139
	c-0.018-6.122,2.758-11.244,3.95-13.158C38.104,6.766,37.646,6.725,37.164,6.725 M29.964,70.33c-3.847,0-5.32-3.601-5.431-5.349
	c-0.226-3.586,1.381-8.055,3.508-9.756l0.884-0.707l0.183,1.118c0.002,0.027,0.384,2.277,1.907,3.608l0.363,0.31
	c1.696,1.469,3.453,2.985,3.317,5.957C34.559,68.529,32.789,70.33,29.964,70.33z M23.289,65.188l0.234,1.826l-1.343-1.25
	c-2.275-2.139-3.845-5.25-4.42-8.77c-1.612-9.862,7.033-19.737,11.927-22.047l1.328-0.629l-0.411,1.411
	c-1.591,5.48,0.424,9.921,6.158,13.569c3.804,2.421,5.721,5.273,5.695,8.476c-0.034,4.383-3.775,8.095-5.581,9.207l-1.223,0.747
	l0.221-1.415c0.334-2.139,0.294-4.521-4.088-8.063c-1.575-1.27-1.822-4.712-1.834-6.604C22.435,56.608,23.174,64.294,23.289,65.188z
	 M35.945,9.088c-3.532,7.115-2.828,10.259-2.211,13.032c0.078,0.344,0.152,0.676,0.217,1.006c1.085-1.04,2.938-2.515,4.894-2.701
	l0.899-0.086l-0.188,0.881c-1.838,8.585,0.813,11.993,3.688,14.746c4.937,4.725,9.602,9.193,8.705,15.918
	c-0.948,7.135-5.599,13.257-12.44,16.382l-4.999,2.282l4.313-3.4c0.053-0.041,5.165-4.43,4.956-9.823
	c-0.127-3.289-2.213-6.314-6.191-8.975c-9-6.023-6.165-11.927-4.804-14.759c0.097-0.205,0.198-0.417,0.285-0.609
	c-2.357-0.092-5.681,1.596-8.745,4.454c-4.572,4.275-9.024,11.714-7.806,19.769c0.676,4.462,2.957,8.348,6.26,10.665l3.95,2.767
	l-4.55-1.604C11.633,65.319,7.415,54.63,6.985,45.861c-0.227-4.64,0.733-14.032,9.713-24.866
	c5.773-6.97,13.057-12.014,18.556-12.861l1.261-0.193L35.945,9.088z"/>
<path fill="#1D1D1B" d="M13.104,66.523c4.567,4.059,10.712,6.387,16.859,6.387c12.425,0,22.975-8.896,24.545-20.688
	c0.819-6.169-2.381-12.278-9.515-18.148l-0.035-0.028c-5.865-4.215-2.119-15.328-2.08-15.44l0.234-0.682l-0.696-0.179
	c-0.118-0.028-2.73-0.656-6.479,1.138c0.376-6.678,4.156-12.013,4.196-12.066l0.521-0.728L39.81,5.803
	c-3.942-1.343-10.394,0.749-16.827,5.461C13.787,17.996,4.079,30.651,4.409,45.967C4.594,54.523,7.601,61.633,13.104,66.523
	 M34.588,21.134l0.987-0.563c2.647-1.516,4.767-1.667,5.81-1.622c-0.803,2.767-2.947,12.013,2.784,16.156
	c6.747,5.559,9.783,11.258,9.026,16.943c-1.48,11.139-11.468,19.538-23.23,19.538c-11.404,0-23.852-8.027-24.231-25.646
	c-0.32-14.813,9.104-27.07,18.031-33.609c4.875-3.567,9.837-5.606,13.398-5.606c0.482,0,0.941,0.039,1.371,0.112
	c-1.191,1.913-3.968,7.035-3.95,13.158L34.588,21.134z"/>
<path fill="#1D1D1B" d="M31.378,59.555l-0.363-0.311c-1.522-1.331-1.904-3.58-1.907-3.607l-0.183-1.118l-0.884,0.706
	c-2.127,1.702-3.734,6.169-3.508,9.757c0.11,1.747,1.583,5.348,5.431,5.348c2.825,0,4.595-1.801,4.731-4.818
	C34.831,62.54,33.074,61.023,31.378,59.555 M33.373,65.451c-0.072,1.621-0.726,3.555-3.409,3.555c-3.624,0-4.107-4.064-4.11-4.103
	c-0.167-2.655,0.856-6.043,2.261-7.857c0.32,0.932,0.928,2.231,2.031,3.189l0.369,0.324C32.104,61.93,33.479,63.121,33.373,65.451z"
	/>
<path fill="#1D1D1B" d="M29.95,51.645c0.013,1.892,0.261,5.336,1.836,6.604c4.381,3.543,4.422,5.925,4.088,8.063l-0.222,1.417
	l1.223-0.748c1.807-1.112,5.547-4.825,5.581-9.207c0.024-3.202-1.891-6.057-5.695-8.477c-5.735-3.647-7.749-8.089-6.157-13.568
	l0.41-1.411l-1.328,0.629c-4.894,2.311-13.538,12.184-11.927,22.046c0.575,3.521,2.144,6.633,4.42,8.77l1.343,1.251l-0.234-1.827
	C23.174,64.293,22.435,56.608,29.95,51.645 M30.311,49.871c-7.192,4.11-8.329,10.458-8.412,13.621
	c-1.424-1.813-2.413-4.144-2.833-6.71c-1.377-8.421,5.251-16.852,9.908-19.91c-0.984,5.373,1.391,9.921,7.078,13.542
	c3.394,2.158,5.103,4.633,5.081,7.346c-0.021,3.012-2.156,5.745-3.806,7.215c0.022-2.098-0.786-4.587-4.708-7.75
	c-1.185-0.96-1.437-4.646-1.317-6.744l0.068-1.218L30.311,49.871z"/>
<path fill="#1D1D1B" d="M16.698,20.996c-8.98,10.833-9.94,20.226-9.713,24.866c0.43,8.769,4.648,19.458,15.198,23.171l4.55,1.602
	l-3.951-2.767c-3.303-2.316-5.584-6.202-6.259-10.664c-1.22-8.054,3.232-15.492,7.805-19.769c3.063-2.859,6.387-4.546,8.744-4.454
	c-0.086,0.193-0.188,0.404-0.284,0.609c-1.363,2.833-4.198,8.737,4.803,14.759c3.98,2.66,6.064,5.686,6.192,8.976
	c0.21,5.394-4.904,9.782-4.956,9.821l-4.313,3.401l4.999-2.283c6.842-3.124,11.492-9.247,12.439-16.382
	c0.897-6.724-3.768-11.191-8.704-15.917c-2.875-2.753-5.526-6.161-3.689-14.745l0.188-0.881l-0.898,0.086
	c-1.956,0.186-3.81,1.661-4.896,2.701c-0.063-0.331-0.138-0.663-0.215-1.006c-0.62-2.773-1.322-5.917,2.21-13.032l0.568-1.146
	l-1.262,0.193C29.755,8.981,22.471,14.026,16.698,20.996 M42.33,36.925c4.689,4.487,9.116,8.725,8.309,14.785
	c-0.716,5.382-3.69,10.154-8.183,13.344c1.397-1.959,2.768-4.692,2.646-7.783c-0.145-3.739-2.427-7.107-6.777-10.027
	c-8.045-5.381-5.638-10.391-4.347-13.083c0.347-0.715,0.595-1.232,0.629-1.688l0.041-0.569l-0.559-0.12
	c-2.813-0.622-6.903,1.172-10.665,4.686c-4.82,4.507-9.507,12.371-8.211,20.937c0.494,3.263,1.792,6.246,3.696,8.617
	C11.679,61.574,8.661,53.009,8.308,45.795C7.532,29.963,23.362,12.504,34.182,9.71c-3.077,6.712-2.338,10.014-1.737,12.702
	c0.172,0.767,0.334,1.496,0.377,2.216l0.102,1.681l1.07-1.297c0.021-0.026,1.944-2.336,4.071-3.064
	C36.508,30.479,39.436,34.146,42.33,36.925z"/>
</svg>
