<?xml version="1.0" encoding="utf-8"?>
<!-- Generator: Adobe Illustrator 14.0.0, SVG Export Plug-In . SVG Version: 6.00 Build 43363)  -->
<!DOCTYPE svg PUBLIC "-//W3C//DTD SVG 1.1//EN" "http://www.w3.org/Graphics/SVG/1.1/DTD/svg11.dtd">
<svg version="1.1" id="Ebene_1" xmlns="http://www.w3.org/2000/svg" xmlns:xlink="http://www.w3.org/1999/xlink" x="0px" y="0px"
	 width="80px" height="61.048px" viewBox="0 0 80 61.048" enable-background="new 0 0 80 61.048" xml:space="preserve">
<path fill="#1D1D1B" d="M79.962,9.92c0.301-1.136-0.371-2.312-1.507-2.626c-0.183-0.045-0.373-0.071-0.563-0.071
	c-0.954,0-1.801,0.639-2.067,1.567l-3.679,13.681c-1.189-0.333-2.326-0.895-3.298-1.658c-1.619-1.235-3.527-2.083-5.525-2.476
	c0.026-3.468-1.084-6.896-3.141-9.665c-3.285-4.846-7.268-7.706-11.862-8.504C47.504,0.052,46.677,0,45.859,0
	c-3.599,0-7.072,1.071-10.043,3.108l-15.23,10.358c-2.351,1.573-2.984,4.76-1.411,7.111c0.17,0.255,0.366,0.497,0.581,0.718
	l-0.365,0.249c-0.469,0.319-0.874,0.705-1.214,1.162c-1.652-0.189-3.213-0.83-4.532-1.881c-1.999-1.542-4.382-2.462-6.89-2.664
	L4.221,8.771C3.914,7.928,3.104,7.36,2.203,7.36c-0.255,0-0.503,0.046-0.738,0.131C0.485,7.85-0.096,8.869,0.1,9.94l10.775,40.221
	c1.952,6.251,7.666,10.62,14.224,10.888h29.825c6.538-0.268,12.253-4.644,14.217-10.912L79.962,9.92 M1.595,7.837
	C2.04,7.673,2.522,7.693,2.954,7.896c0.431,0.203,0.757,0.555,0.921,1.005l2.592,9.613c2.534,0.15,4.937,1.052,6.956,2.606
	c1.423,1.135,3.12,1.814,4.93,1.972c0.333-0.49,0.751-0.908,1.248-1.241l0.744-0.51c-0.327-0.281-0.613-0.607-0.862-0.973
	c-1.456-2.175-0.869-5.134,1.306-6.59L36.025,3.416c3.585-2.463,7.935-3.481,12.244-2.881c4.482,0.784,8.379,3.585,11.607,8.34
	c2.083,2.808,3.165,6.27,3.068,9.776c2.057,0.346,4.016,1.195,5.681,2.463c1.11,0.862,2.41,1.482,3.781,1.801l3.775-14.026
	c0.268-0.935,1.248-1.483,2.176-1.235c0.94,0.254,1.5,1.228,1.253,2.174L68.783,50.038c-1.916,6.112-7.491,10.384-13.872,10.639
	h-29.8c-6.399-0.255-11.977-4.526-13.884-10.626L0.458,9.848C0.303,8.967,0.779,8.13,1.595,7.837z"/>
<path fill="#1D1D1B" d="M25.125,57.132h29.773c4.766-0.237,8.979-3.464,10.461-8.021l6.106-22.761
	c-1.756-0.43-3.441-1.234-4.878-2.325c-1.262-0.993-2.743-1.646-4.316-1.901c-1.848,5.558-6.865,8.823-7.438,9.183L39.865,41.444
	c-0.79,0.528-1.711,0.815-2.659,0.815h-0.019c-0.307,0-0.614-0.031-0.915-0.084c-1.684-0.321-3.056-1.529-3.604-3.135l-2.625,1.808
	c-0.79,0.535-1.711,0.816-2.665,0.816h-0.02c-0.3,0-0.607-0.025-0.908-0.084c-1.809-0.339-3.266-1.717-3.723-3.487
	c-0.326,0.066-0.659,0.091-0.993,0.079h-0.012c-0.294,0-0.603-0.026-0.902-0.086c-1.215-0.248-2.273-0.94-2.978-1.959
	c-1.502-2.161-0.959-5.139,1.201-6.641l0.085-0.059c-0.849-0.725-1.41-1.725-1.573-2.834c-2.253-0.282-4.389-1.163-6.185-2.554
	c-1.162-0.915-2.527-1.548-3.971-1.849l7.249,26.926C16.12,53.668,20.331,56.895,25.125,57.132 M11.143,24.333
	c1.776,1.372,3.878,2.266,6.093,2.593c0.196,0.927,0.653,1.79,1.312,2.462c-0.974,0.777-1.619,1.866-1.848,3.102
	c-0.242,1.352,0.052,2.716,0.837,3.846c0.763,1.098,1.899,1.849,3.212,2.116c0.327,0.058,0.653,0.092,0.98,0.092h0.137
	c0.203,0,0.398-0.014,0.594-0.034c0.588,1.757,2.096,3.088,3.918,3.437c1.313,0.248,2.736-0.02,3.873-0.791l2.247-1.541
	c0.679,1.508,2.063,2.613,3.709,2.919c1.3,0.248,2.73-0.021,3.866-0.784l14.956-10.13c0.567-0.352,5.518-3.578,7.489-9.077
	c1.398,0.281,2.718,0.888,3.841,1.776c1.379,1.045,2.977,1.835,4.656,2.292l-6.008,22.373c-1.431,4.423-5.499,7.544-10.109,7.774
	H25.144c-4.636-0.23-8.712-3.34-10.142-7.746L7.923,22.7C9.085,23.02,10.189,23.582,11.143,24.333z"/>
<path fill="#1D1D1B" d="M21.541,24.785c-0.556,0.384-0.687,1.155-0.302,1.704c0.386,0.555,1.15,0.705,1.706,0.327l12.127-8.151
	c0.81-0.536,1.907-0.32,2.456,0.477c0.541,0.811,0.327,1.913-0.478,2.456L21.023,32.424c-0.267,0.189-0.451,0.464-0.515,0.785
	c-0.059,0.327,0.006,0.652,0.188,0.921c0.183,0.274,0.464,0.457,0.783,0.521c0.328,0.06,0.654-0.006,0.922-0.188l16.025-10.828
	c0.81-0.535,1.907-0.326,2.457,0.476c0.536,0.811,0.326,1.907-0.477,2.456l-13.754,9.307c-0.562,0.378-0.712,1.149-0.333,1.71
	c0.379,0.563,1.149,0.713,1.71,0.333l13.761-9.306c0.301-0.202,0.646-0.294,0.985-0.294c0.569,0,1.13,0.268,1.469,0.771
	c0.545,0.81,0.327,1.912-0.475,2.455l-7.25,4.91c-0.562,0.379-0.712,1.15-0.333,1.712c0.19,0.28,0.47,0.463,0.79,0.522
	c0.32,0.059,0.646-0.006,0.914-0.189l15.035-10.169l0.097-0.065c1.555-1.058,5.264-3.983,6.191-8.229
	c0.626-2.899-0.124-5.962-2.248-9.09c-2.682-3.958-5.791-6.269-9.246-6.87c-3.37-0.438-6.784,0.372-9.607,2.279L22.761,16.751
	c-0.542,0.38-0.68,1.11-0.32,1.666c0.373,0.554,1.143,0.705,1.705,0.326l7.53-5.094c0.809-0.535,1.907-0.327,2.455,0.477
	c0.542,0.81,0.327,1.914-0.478,2.456L21.541,24.785 M34.438,13.917c-0.398-0.588-1.064-0.941-1.776-0.941
	c-0.424,0-0.836,0.132-1.196,0.366l-7.529,5.094c-0.385,0.261-0.94,0.144-1.188-0.215c-0.248-0.392-0.149-0.901,0.215-1.163
	L38.317,6.662c2.26-1.521,4.89-2.333,7.612-2.333c0.585,0,1.17,0.04,1.726,0.112c3.352,0.581,6.379,2.841,9.007,6.713
	c2.063,3.043,2.801,6.001,2.189,8.802c-0.897,4.115-4.522,6.969-6.038,8l-0.091,0.065L37.69,38.191
	c-0.379,0.254-0.934,0.149-1.195-0.234c-0.268-0.393-0.164-0.929,0.234-1.197l7.249-4.91c0.967-0.66,1.229-1.992,0.574-2.971
	c-0.397-0.589-1.064-0.935-1.775-0.935c-0.423,0-0.835,0.124-1.194,0.358l-13.755,9.306c-0.39,0.256-0.946,0.145-1.201-0.233
	c-0.261-0.393-0.157-0.93,0.235-1.196l13.754-9.307c0.967-0.659,1.222-1.992,0.575-2.971c-0.405-0.588-1.065-0.94-1.777-0.94
	c-0.424,0-0.836,0.131-1.195,0.365L22.193,34.155c-0.378,0.255-0.934,0.151-1.189-0.234c-0.13-0.184-0.176-0.412-0.13-0.641
	c0.039-0.222,0.169-0.418,0.36-0.549l16.026-10.828c0.966-0.659,1.227-1.992,0.574-2.971c-0.398-0.588-1.064-0.934-1.775-0.934
	c-0.425,0-0.837,0.124-1.189,0.359l-12.127,8.15c-0.386,0.254-0.934,0.15-1.196-0.229c-0.129-0.19-0.181-0.418-0.143-0.64
	c0.046-0.229,0.177-0.43,0.372-0.568l12.088-8.183C34.829,16.229,35.091,14.896,34.438,13.917z"/>
<path fill="#1D1D1B" d="M1.817,8.45C1.302,8.64,0.995,9.169,1.092,9.705l10.762,40.163c1.823,5.825,7.159,9.912,13.271,10.156
	h29.773c6.092-0.244,11.428-4.331,13.258-10.171l10.82-40.194c0.156-0.595-0.195-1.215-0.791-1.372
	c-0.593-0.163-1.207,0.19-1.37,0.771l-3.938,14.622l-0.301-0.058c-1.573-0.313-3.082-1.006-4.348-1.991
	c-1.654-1.261-3.612-2.084-5.67-2.378l-0.295-0.045l0.014-0.295c0.164-3.454-0.876-6.882-2.938-9.658
	c-3.128-4.611-6.883-7.327-11.167-8.071c-4.141-0.582-8.326,0.404-11.781,2.768L21.154,14.321c-1.88,1.255-2.383,3.807-1.13,5.688
	c0.289,0.424,0.648,0.79,1.065,1.084l0.391,0.268l-1.515,1.032c-0.47,0.319-0.868,0.725-1.169,1.214l-0.104,0.164l-0.197-0.014
	c-2.011-0.13-3.904-0.868-5.479-2.122c-1.973-1.522-4.329-2.384-6.819-2.482l-0.241-0.013L3.254,9.097
	C3.155,8.842,2.947,8.614,2.68,8.489c-0.15-0.071-0.314-0.11-0.477-0.11C2.073,8.379,1.941,8.404,1.817,8.45 M21.167,24.249
	l0.034-0.026l12.087-8.183c0.503-0.339,0.64-1.04,0.301-1.549c-0.341-0.502-1.038-0.64-1.548-0.3l-7.53,5.094
	c-0.862,0.582-2.031,0.354-2.619-0.503c-0.555-0.862-0.333-1.985,0.497-2.566l15.36-10.396c2.951-2.005,6.53-2.848,10.07-2.391
	c3.65,0.634,6.902,3.043,9.69,7.15c2.228,3.285,3.012,6.512,2.339,9.602c-0.973,4.466-4.838,7.522-6.459,8.626l-0.073,0.052
	L38.265,39.034c-0.327,0.222-0.693,0.327-1.059,0.327c-0.6,0-1.188-0.288-1.553-0.823c-0.589-0.869-0.36-2.044,0.501-2.625
	l7.25-4.905c0.503-0.345,0.64-1.045,0.301-1.554c-0.341-0.502-1.038-0.64-1.548-0.3l-13.761,9.305
	c-0.862,0.576-2.03,0.347-2.618-0.509c-0.575-0.862-0.347-2.038,0.508-2.618l13.754-9.307c0.502-0.34,0.639-1.038,0.3-1.547
	c-0.346-0.504-1.038-0.641-1.554-0.301L22.767,35.005c-0.417,0.28-0.914,0.377-1.41,0.287c-0.49-0.099-0.921-0.379-1.201-0.797
	c-0.282-0.412-0.385-0.915-0.289-1.405c0.092-0.496,0.379-0.921,0.791-1.202l16.026-10.828c0.503-0.346,0.64-1.045,0.3-1.554
	c-0.339-0.503-1.038-0.64-1.549-0.3L23.31,27.363c-0.855,0.567-2.023,0.347-2.605-0.496C20.109,26.018,20.319,24.842,21.167,24.249z
	 M7.002,21.46c1.738,0.261,3.39,0.972,4.768,2.07c1.77,1.365,3.886,2.207,6.112,2.442l0.269,0.025l0.025,0.268
	c0.104,1.175,0.725,2.24,1.698,2.905l0.399,0.276l-0.862,0.574c-1.86,1.292-2.325,3.866-1.032,5.733
	c0.607,0.875,1.522,1.476,2.566,1.692c0.262,0.046,0.549,0.084,0.797,0.072c0.399,0.013,0.777-0.033,1.15-0.131l0.338-0.084
	l0.066,0.346c0.3,1.652,1.618,2.98,3.278,3.292c0.254,0.044,0.522,0.071,0.79,0.071h0.014c0.822,0,1.613-0.241,2.292-0.706
	l3.402-2.332l0.105,0.471c0.365,1.575,1.626,2.79,3.219,3.083c0.262,0.052,0.542,0.063,0.804,0.079c0.822,0,1.621-0.249,2.299-0.706
	l14.976-10.135c0.573-0.36,5.55-3.606,7.262-9.105l0.078-0.261l0.274,0.033c1.789,0.241,3.48,0.96,4.896,2.077
	c1.451,1.097,3.168,1.887,4.956,2.279l0.334,0.072l-6.296,23.446c-1.561,4.817-6.009,8.222-11.068,8.476H25.113
	c-5.082-0.254-9.53-3.658-11.089-8.476L6.507,21.382L7.002,21.46z"/>
<path fill="#1D1D1B" d="M25.113,60.676h29.798c6.381-0.255,11.956-4.527,13.872-10.639L79.61,9.829
	c0.247-0.947-0.313-1.92-1.253-2.175c-0.928-0.248-1.908,0.301-2.176,1.235l-3.775,14.026c-1.371-0.319-2.671-0.939-3.781-1.801
	c-1.665-1.268-3.624-2.117-5.681-2.463c0.097-3.507-0.985-6.968-3.068-9.776c-3.229-4.754-7.125-7.556-11.607-8.34
	c-4.309-0.6-8.658,0.418-12.244,2.88L20.788,13.779c-2.174,1.456-2.761,4.415-1.306,6.589c0.25,0.366,0.535,0.692,0.862,0.973
	l-0.744,0.51c-0.497,0.333-0.914,0.751-1.248,1.241c-1.81-0.157-3.507-0.836-4.93-1.972c-2.019-1.555-4.422-2.457-6.956-2.606
	L3.875,8.901C3.711,8.45,3.384,8.099,2.954,7.896C2.522,7.693,2.04,7.673,1.595,7.837c-0.816,0.292-1.292,1.13-1.135,2.01
	L11.228,50.05C13.134,56.149,18.712,60.421,25.113,60.676 M3.254,9.097l2.704,10.044l0.241,0.013c2.49,0.098,4.846,0.96,6.819,2.482
	c1.574,1.253,3.467,1.991,5.479,2.122l0.197,0.014l0.104-0.164c0.301-0.489,0.699-0.895,1.169-1.214l1.515-1.032l-0.391-0.268
	c-0.417-0.295-0.777-0.66-1.065-1.084c-1.253-1.882-0.75-4.434,1.13-5.688L36.391,3.95c3.455-2.364,7.641-3.35,11.781-2.768
	c4.284,0.744,8.039,3.46,11.167,8.071c2.063,2.776,3.103,6.205,2.938,9.658l-0.014,0.295l0.295,0.045
	c2.058,0.294,4.016,1.117,5.67,2.378c1.266,0.985,2.774,1.679,4.348,1.991l0.301,0.058l3.938-14.622
	c0.163-0.581,0.777-0.934,1.37-0.771c0.596,0.157,0.947,0.777,0.791,1.372l-10.82,40.194c-1.83,5.84-7.166,9.927-13.258,10.171
	H25.125c-6.112-0.244-11.448-4.331-13.271-10.156L1.092,9.705C0.995,9.169,1.302,8.64,1.817,8.45
	c0.124-0.046,0.255-0.071,0.385-0.071c0.163,0,0.327,0.04,0.477,0.11C2.947,8.614,3.155,8.842,3.254,9.097z"/>
<path fill="#1D1D1B" d="M25.111,57.784h29.8c5.06-0.255,9.508-3.659,11.068-8.477l6.296-23.446l-0.334-0.072
	c-1.789-0.392-3.505-1.181-4.956-2.279c-1.416-1.117-3.107-1.835-4.896-2.077l-0.274-0.033l-0.078,0.261
	c-1.712,5.499-6.688,8.745-7.262,9.105L39.499,40.902c-0.678,0.457-1.477,0.706-2.299,0.706c-0.262-0.016-0.542-0.027-0.804-0.079
	c-1.593-0.294-2.854-1.509-3.219-3.083l-0.105-0.469l-3.402,2.33c-0.678,0.466-1.469,0.706-2.292,0.706h-0.014
	c-0.268,0-0.536-0.026-0.79-0.071c-1.66-0.313-2.978-1.64-3.279-3.292l-0.066-0.346l-0.338,0.084
	c-0.373,0.099-0.751,0.144-1.15,0.131c-0.248,0.013-0.535-0.026-0.797-0.072c-1.044-0.215-1.959-0.817-2.566-1.692
	c-1.293-1.867-0.828-4.44,1.032-5.733l0.862-0.574l-0.399-0.276c-0.973-0.665-1.593-1.729-1.698-2.905l-0.025-0.268l-0.269-0.025
	c-2.227-0.235-4.343-1.077-6.112-2.442c-1.378-1.098-3.03-1.809-4.768-2.07l-0.495-0.078l7.516,27.925
	C15.583,54.125,20.03,57.529,25.111,57.784 M11.372,24.04c1.796,1.391,3.932,2.272,6.185,2.554c0.163,1.109,0.724,2.109,1.573,2.834
	l-0.085,0.059c-2.16,1.502-2.703,4.48-1.201,6.641c0.705,1.019,1.763,1.711,2.978,1.959c0.3,0.06,0.607,0.086,0.902,0.086h0.012
	c0.334,0.013,0.667-0.012,0.993-0.079c0.457,1.77,1.914,3.148,3.723,3.487c0.301,0.059,0.607,0.084,0.908,0.084h0.02
	c0.954,0,1.875-0.281,2.665-0.816l2.625-1.808c0.548,1.606,1.92,2.814,3.604,3.135c0.301,0.053,0.608,0.084,0.915,0.084h0.019
	c0.947,0,1.869-0.287,2.659-0.815l14.968-10.136c0.573-0.36,5.591-3.625,7.438-9.183c1.573,0.255,3.055,0.908,4.316,1.901
	c1.437,1.091,3.122,1.895,4.878,2.325l-6.106,22.761c-1.481,4.557-5.695,7.783-10.461,8.021H25.125
	c-4.794-0.237-9.005-3.464-10.475-8.016L7.401,22.19C8.845,22.492,10.209,23.125,11.372,24.04z"/>
<path fill="#1D1D1B" d="M23.31,27.363l12.126-8.156c0.511-0.34,1.209-0.203,1.549,0.3c0.339,0.509,0.203,1.208-0.3,1.554
	L20.658,31.889c-0.411,0.28-0.699,0.706-0.791,1.202c-0.097,0.49,0.007,0.993,0.289,1.405c0.28,0.418,0.711,0.698,1.201,0.797
	c0.497,0.09,0.993-0.007,1.41-0.287l16.021-10.829c0.516-0.34,1.208-0.203,1.554,0.301c0.339,0.51,0.202,1.208-0.3,1.547
	l-13.753,9.307c-0.856,0.58-1.084,1.755-0.509,2.618c0.587,0.855,1.756,1.084,2.618,0.509l13.761-9.305
	c0.51-0.34,1.207-0.202,1.548,0.3c0.339,0.509,0.202,1.209-0.301,1.554l-7.25,4.905c-0.861,0.582-1.09,1.756-0.501,2.625
	c0.366,0.535,0.953,0.823,1.553,0.823c0.365,0,0.731-0.105,1.059-0.327l15.052-10.175l0.074-0.052
	c1.62-1.104,5.485-4.16,6.458-8.626c0.673-3.09-0.111-6.316-2.339-9.602c-2.788-4.107-6.04-6.517-9.69-7.15
	c-3.54-0.457-7.12,0.386-10.07,2.391l-15.36,10.396c-0.83,0.581-1.051,1.705-0.497,2.566c0.587,0.856,1.756,1.084,2.619,0.503
	l7.53-5.094c0.51-0.339,1.207-0.202,1.548,0.3C33.928,15,33.791,15.7,33.288,16.04l-12.087,8.183l-0.034,0.026
	c-0.848,0.594-1.058,1.769-0.463,2.618C21.286,27.709,22.454,27.93,23.31,27.363 M34.13,14.125
	c-0.548-0.804-1.646-1.012-2.455-0.477l-7.53,5.094c-0.562,0.379-1.332,0.228-1.705-0.326c-0.359-0.556-0.222-1.287,0.32-1.666
	L38.114,6.354c2.823-1.907,6.237-2.716,9.607-2.279c3.455,0.601,6.564,2.913,9.246,6.87c2.124,3.128,2.874,6.191,2.248,9.09
	c-0.927,4.245-4.637,7.171-6.191,8.229l-0.097,0.065L37.892,38.498c-0.267,0.183-0.593,0.248-0.914,0.189
	c-0.32-0.06-0.6-0.242-0.79-0.522c-0.38-0.562-0.229-1.333,0.333-1.712l7.25-4.91c0.802-0.543,1.02-1.646,0.476-2.455
	c-0.34-0.503-0.9-0.771-1.47-0.771c-0.339,0-0.685,0.092-0.985,0.294l-13.761,9.306c-0.562,0.379-1.332,0.229-1.71-0.333
	c-0.378-0.561-0.228-1.332,0.333-1.71l13.754-9.308c0.802-0.548,1.012-1.645,0.477-2.455c-0.549-0.802-1.646-1.011-2.457-0.477
	L22.402,34.462c-0.268,0.182-0.595,0.248-0.922,0.188c-0.319-0.064-0.6-0.248-0.783-0.521c-0.182-0.269-0.248-0.594-0.188-0.92
	c0.065-0.321,0.248-0.596,0.515-0.785l16.026-10.827c0.804-0.543,1.019-1.646,0.478-2.456c-0.549-0.797-1.646-1.013-2.456-0.477
	l-12.127,8.151c-0.555,0.378-1.32,0.229-1.706-0.327c-0.385-0.549-0.254-1.319,0.302-1.704l12.112-8.204
	C34.458,16.04,34.673,14.935,34.13,14.125z"/>
</svg>
