<?xml version="1.0" encoding="utf-8"?>
<!-- Generator: Adobe Illustrator 14.0.0, SVG Export Plug-In . SVG Version: 6.00 Build 43363)  -->
<!DOCTYPE svg PUBLIC "-//W3C//DTD SVG 1.1//EN" "http://www.w3.org/Graphics/SVG/1.1/DTD/svg11.dtd">
<svg version="1.1" xmlns="http://www.w3.org/2000/svg" xmlns:xlink="http://www.w3.org/1999/xlink" x="0px" y="0px"
	 width="98.465px" height="67.167px" viewBox="0 0 98.465 67.167" enable-background="new 0 0 98.465 67.167" xml:space="preserve">
<g id="Ebene_1">
	
		<image display="none" overflow="visible" width="98" height="67" xlink:href="schadstoffgeprueft-oekotex-schwarz.png"  transform="matrix(1.0002 0 0 1.0002 1.8447 -0.6665)">
	</image>
	<path d="M20.196,54.514c42.525,12.83,66.905,2.749,78.269-48.758C12.313-18.623,20.196,54.514,20.196,54.514z M25.992,50.856
		c0,0-6.579-61.041,65.323-40.694C81.831,53.151,61.484,61.565,25.992,50.856z"/>
	<path d="M1.345,58.333c1.519,1.019,6.437,0.533,8.133,0.212c2.677-0.507,5.266-2.342,7.485-3.875
		c5.19-3.59,9.823-7.958,13.916-12.699c1.911-2.214,3.635-4.371,5.804-6.3c1.536-1.366,3.334-2.496,4.788-3.899
		c3.01-2.904,5.952-6.187,9.417-8.475c3.091-2.04,6.39-3.541,9.962-4.301c2.482-0.528,7.211-1.313,8.195,2.004
		c0.977,3.29-5.34,4.903-7.611,5.801c-3.217,1.271-6.391,2.644-9.433,4.395c-4.101,2.361-8.018,4.783-11.455,8.011
		c-2.857,2.683-4.866,6.025-7.117,9.134c-4.267,5.894-10.427,11.095-17.079,13.96c-3.006,1.294-6.458,2.542-9.833,2.532
		c-2.886-0.008-6.948-2.788-6.478-5.975c0.56-0.09,1.106-0.21,1.641-0.358"/>
</g>
<g id="Ebene_2">
</g>
</svg>
