<svg xmlns="http://www.w3.org/2000/svg" viewBox="0 0 150 150"><g id="icons"><rect x="2.52" y="20.13" width="80" height="48" rx="2.26" transform="translate(-1.61 86.65) rotate(-90)"/><rect x="66.52" y="20.13" width="80" height="48" rx="2.26" transform="translate(62.39 150.65) rotate(-90)"/><path d="M15.48,146.45H9.14V129.1l.06-2.85.1-3.12q-1.58,1.58-2.19,2.07L3.66,128,.61,124.16l9.66-7.69h5.21Z"/><path d="M44.74,146.45h-21V142l7.53-7.61c2.23-2.28,3.68-3.86,4.37-4.75a10.29,10.29,0,0,0,1.47-2.45,6.23,6.23,0,0,0,.45-2.33,3.42,3.42,0,0,0-1-2.69,3.85,3.85,0,0,0-2.66-.88,7.53,7.53,0,0,0-3.38.8,17.61,17.61,0,0,0-3.43,2.27l-3.44-4.08a22.45,22.45,0,0,1,3.67-2.66,13.42,13.42,0,0,1,3.18-1.2A16.28,16.28,0,0,1,34.4,116a11.49,11.49,0,0,1,5,1,7.9,7.9,0,0,1,3.34,2.87,7.66,7.66,0,0,1,1.19,4.23,10.22,10.22,0,0,1-.73,3.88,15.17,15.17,0,0,1-2.25,3.73,55.68,55.68,0,0,1-5.39,5.43l-3.85,3.63v.29H44.74Z"/><path d="M50.73,146.45,62,121.84H47.2v-5.33H68.71v4l-11.34,26Z"/><path d="M93.86,146.45H87.6V133.06a6.74,6.74,0,0,0-.83-3.72,2.91,2.91,0,0,0-2.61-1.25,3.78,3.78,0,0,0-3.49,1.77c-.72,1.17-1.09,3.11-1.09,5.8v10.79H73.33V123.52h4.78l.84,2.93h.35A6.37,6.37,0,0,1,82,124a8.72,8.72,0,0,1,4-.89c3.43,0,5.76,1.12,7,3.36h.56A6.23,6.23,0,0,1,96.2,124a9.05,9.05,0,0,1,4-.88q3.9,0,5.9,2t2,6.41v14.95h-6.28V133.06a6.65,6.65,0,0,0-.83-3.72,2.91,2.91,0,0,0-2.61-1.25A3.9,3.9,0,0,0,95,129.74a9.37,9.37,0,0,0-1.13,5.2Z"/><path d="M135.1,146.45h-6.26V133.06a6.65,6.65,0,0,0-.83-3.72,2.91,2.91,0,0,0-2.61-1.25,3.79,3.79,0,0,0-3.49,1.77c-.72,1.17-1.09,3.11-1.09,5.8v10.79h-6.25V123.52h4.78l.84,2.93h.35A6.37,6.37,0,0,1,123.2,124a8.75,8.75,0,0,1,4-.89q5.14,0,7,3.36h.55a6.2,6.2,0,0,1,2.72-2.48,9,9,0,0,1,4.05-.88,8,8,0,0,1,5.89,2c1.34,1.33,2,3.47,2,6.41v14.95h-6.27V133.06a6.74,6.74,0,0,0-.83-3.72,2.94,2.94,0,0,0-2.62-1.25,3.89,3.89,0,0,0-3.43,1.65,9.27,9.27,0,0,0-1.14,5.2Z"/></g></svg>