<svg xmlns="http://www.w3.org/2000/svg" viewBox="0 0 150 150"><g id="icons"><rect x="-9" y="29.13" width="80" height="30" rx="1.79" transform="translate(-13.13 75.13) rotate(-90)"/><rect x="35" y="29.13" width="80" height="30" rx="1.79" transform="translate(30.87 119.13) rotate(-90)"/><rect x="79" y="29.13" width="80" height="30" rx="1.79" transform="translate(74.87 163.13) rotate(-90)"/><path d="M17.18,116A11.39,11.39,0,0,1,24.12,118a6.25,6.25,0,0,1,2.64,5.29,6.9,6.9,0,0,1-1.28,4.09,10.86,10.86,0,0,1-4.1,3.21,14.49,14.49,0,0,1,4.83,3.76,7,7,0,0,1,1.47,4.3,7.15,7.15,0,0,1-2.89,5.93,12.06,12.06,0,0,1-7.61,2.25,12.72,12.72,0,0,1-7.73-2.09,6.94,6.94,0,0,1-2.81-5.93A7.83,7.83,0,0,1,8,134.25a11.29,11.29,0,0,1,4.38-3.51,11.21,11.21,0,0,1-3.69-3.47,7.6,7.6,0,0,1-1.13-4,6.18,6.18,0,0,1,2.67-5.2A11.28,11.28,0,0,1,17.18,116ZM12.5,138.43a3.33,3.33,0,0,0,1.23,2.75,5.28,5.28,0,0,0,3.37,1,5.28,5.28,0,0,0,3.52-1,3.38,3.38,0,0,0,1.17-2.68,3.64,3.64,0,0,0-1.16-2.57,14.94,14.94,0,0,0-3.76-2.56Q12.51,135.35,12.5,138.43Zm4.64-17.76a4,4,0,0,0-2.62.83,2.76,2.76,0,0,0-1,2.23,3.38,3.38,0,0,0,.79,2.2,8.55,8.55,0,0,0,2.86,2A8,8,0,0,0,20,126a3.5,3.5,0,0,0,.8-2.27,2.7,2.7,0,0,0-1-2.24A4,4,0,0,0,17.14,120.67Z"/><path d="M51.65,129.22q0,8.86-3.73,13.23t-11.3,4.37a21.3,21.3,0,0,1-4-.29v-5.08a15.19,15.19,0,0,0,3.61.43,12.55,12.55,0,0,0,5.23-.94A6.61,6.61,0,0,0,44.56,138a13,13,0,0,0,1.25-5.51h-.25a7,7,0,0,1-2.75,2.71,8.67,8.67,0,0,1-3.89.78,7.9,7.9,0,0,1-6.18-2.51,10.11,10.11,0,0,1-2.25-7,10.38,10.38,0,0,1,2.74-7.61,9.92,9.92,0,0,1,7.45-2.8,10.72,10.72,0,0,1,5.81,1.56,9.89,9.89,0,0,1,3.83,4.52A17.07,17.07,0,0,1,51.65,129.22ZM40.8,121.16a3.73,3.73,0,0,0-3.07,1.36,6,6,0,0,0-1.11,3.89,5.42,5.42,0,0,0,1,3.45,3.65,3.65,0,0,0,3.06,1.27,4.69,4.69,0,0,0,3.3-1.26,3.84,3.84,0,0,0,1.38-2.9,6.61,6.61,0,0,0-1.29-4.13A3.93,3.93,0,0,0,40.8,121.16Z"/><path d="M87.83,146.41H81.57V133a6.71,6.71,0,0,0-.83-3.73,2.92,2.92,0,0,0-2.61-1.24,3.79,3.79,0,0,0-3.49,1.77c-.72,1.17-1.09,3.11-1.09,5.8v10.79H67.3V123.48h4.78l.84,2.93h.35a6.37,6.37,0,0,1,2.66-2.47,8.75,8.75,0,0,1,4-.89q5.14,0,7,3.36h.55a6.2,6.2,0,0,1,2.72-2.48,9,9,0,0,1,4-.88,8,8,0,0,1,5.89,2c1.34,1.33,2,3.47,2,6.41v14.95H95.85V133a6.8,6.8,0,0,0-.83-3.73,3,3,0,0,0-2.62-1.24A3.9,3.9,0,0,0,89,129.69a9.31,9.31,0,0,0-1.14,5.21Z"/><path d="M129.07,146.41h-6.26V133a6.71,6.71,0,0,0-.83-3.73,2.92,2.92,0,0,0-2.61-1.24,3.79,3.79,0,0,0-3.49,1.77c-.72,1.17-1.08,3.11-1.08,5.8v10.79h-6.26V123.48h4.78l.84,2.93h.35a6.37,6.37,0,0,1,2.66-2.47,8.75,8.75,0,0,1,4-.89q5.14,0,7,3.36h.55a6.2,6.2,0,0,1,2.72-2.48,9,9,0,0,1,4.05-.88,8,8,0,0,1,5.89,2c1.34,1.33,2,3.47,2,6.41v14.95h-6.27V133a6.8,6.8,0,0,0-.83-3.73,3,3,0,0,0-2.62-1.24,3.9,3.9,0,0,0-3.43,1.64,9.31,9.31,0,0,0-1.14,5.21Z"/></g></svg>