<svg xmlns="http://www.w3.org/2000/svg" viewBox="0 0 150 150"><defs><style>.cls-1{fill:none;}.cls-1,.cls-2{stroke:#000;}.cls-1,.cls-2,.cls-4{stroke-linejoin:round;}.cls-1,.cls-2,.cls-3,.cls-4{stroke-width:3px;}.cls-2,.cls-3,.cls-4{fill:#ececec;}.cls-3,.cls-4{stroke:#1d1d1b;}.cls-3{stroke-miterlimit:10;}</style></defs><g id="icons"><polygon class="cls-1" points="28.72 46.1 137.38 41.97 146 60.02 36.83 64.83 28.72 46.1"/><polygon class="cls-2" points="28.85 79.52 36.83 64.83 146 60.02 137.76 75.14 28.85 79.52"/><polygon class="cls-1" points="28.55 12.66 137.2 8.54 145.83 26.58 36.66 31.39 28.55 12.66"/><polygon class="cls-2" points="28.68 46.09 36.66 31.39 145.83 26.58 137.59 41.7 28.68 46.09"/><polygon class="cls-1" points="28.68 79.21 137.33 75.09 145.96 93.13 36.78 97.94 28.68 79.21"/><polygon class="cls-2" points="28.81 112.63 36.78 97.94 145.96 93.13 137.72 108.25 28.81 112.63"/><polygon class="cls-3" points="12.13 41.79 28.38 46 36.49 31.53 28.36 12.85 12.12 8.63 4.01 23.1 12.13 41.79"/><polygon class="cls-3" points="12.49 75.04 28.73 79.25 36.85 64.78 28.72 46.1 12.48 41.88 4.37 56.35 12.49 75.04"/><polygon class="cls-3" points="12.24 108.53 28.77 112.62 37.17 98.03 29.04 79.35 12.52 75.25 4.12 89.84 12.24 108.53"/><polygon class="cls-4" points="120.8 4 137.18 8.75 28.36 12.85 12.12 8.63 120.8 4"/><polygon class="cls-1" points="28.56 112.58 137.22 108.45 145.84 126.5 36.67 131.31 28.56 112.58"/><polygon class="cls-2" points="28.69 146 36.67 131.31 145.84 126.5 137.61 141.62 28.69 146"/><polygon class="cls-3" points="12.13 141.89 28.65 145.99 37.05 131.4 28.93 112.71 12.4 108.62 4 123.21 12.13 141.89"/></g></svg>