<?xml version="1.0" encoding="UTF-8"?>
<svg id="Ebene_1" data-name="Ebene 1" xmlns="http://www.w3.org/2000/svg" viewBox="0 0 150 150">
  <defs>
    <style>
      .cls-1 {
        fill: #1d1d1b;
        stroke: #1d1d1b;
        stroke-miterlimit: 10;
        stroke-width: 3px;
      }
    </style>
  </defs>
  <path class="cls-1" d="m127.2,12.36c-1.28,0-2.32,1.04-2.32,2.32v16.24h-16.24c-1.28,0-2.32,1.04-2.32,2.32s1.04,2.32,2.32,2.32h16.24v16.24c0,1.28,1.04,2.32,2.32,2.32s2.32-1.04,2.32-2.32v-16.24h16.24c1.28,0,2.32-1.04,2.32-2.32s-1.04-2.32-2.32-2.32h-16.24V14.68c0-1.28-1.04-2.32-2.32-2.32Zm0,83.52c-1.28,0-2.32,1.04-2.32,2.32v16.24h-16.24c-1.28,0-2.32,1.04-2.32,2.32s1.04,2.32,2.32,2.32h16.24v16.24c0,1.28,1.04,2.32,2.32,2.32s2.32-1.04,2.32-2.32v-16.24h16.24c1.28,0,2.32-1.04,2.32-2.32s-1.04-2.32-2.32-2.32h-16.24v-16.24c0-1.28-1.04-2.32-2.32-2.32ZM39.65,59.31c1.02-.46,1.8-1.28,2.26-2.26l15.28-33.09,15.28,33.09c.46,1.02,1.28,1.8,2.26,2.26l33.09,15.28-33.12,15.25c-1.02.46-1.8,1.28-2.26,2.26l-15.25,33.09-15.28-33.09c-.46-1.02-1.28-1.8-2.26-2.26l-33.09-15.25,33.09-15.28h0Zm21.75-37.3c-.75-1.65-2.41-2.7-4.21-2.7s-3.45,1.04-4.21,2.7l-15.31,33.09-33.06,15.25c-1.65.75-2.7,2.41-2.7,4.23s1.04,3.45,2.7,4.21l33.09,15.28,15.25,33.06c.75,1.65,2.41,2.7,4.21,2.7s3.45-1.04,4.21-2.7l15.28-33.09,33.09-15.28c1.65-.75,2.7-2.41,2.7-4.21s-1.04-3.45-2.7-4.21l-33.06-15.25-15.28-33.09h0Z"/>
</svg>