<?xml version="1.0" encoding="utf-8"?>
<!-- Generator: Adobe Illustrator 14.0.0, SVG Export Plug-In . SVG Version: 6.00 Build 43363)  -->
<!DOCTYPE svg PUBLIC "-//W3C//DTD SVG 1.1//EN" "http://www.w3.org/Graphics/SVG/1.1/DTD/svg11.dtd">
<svg version="1.1" id="Ebene_1" xmlns="http://www.w3.org/2000/svg" xmlns:xlink="http://www.w3.org/1999/xlink" x="0px" y="0px"
	 width="80px" height="80px" viewBox="0 0 80 80" enable-background="new 0 0 80 80" xml:space="preserve">
<line fill="#1D1D1B" x1="43.964" y1="66.958" x2="67.605" y2="43.318"/>
<path fill="#1D1D1B" d="M46.264,69.258l23.64-23.64c1.269-1.271,1.269-3.33,0-4.601c-1.269-1.27-3.327-1.27-4.597,0L41.666,64.658
	c-1.27,1.27-1.27,3.33,0,4.6S44.993,70.527,46.264,69.258"/>
<line fill="#1D1D1B" x1="12.852" y1="35.848" x2="36.492" y2="12.208"/>
<path fill="#1D1D1B" d="M15.15,38.138l23.64-23.64c1.271-1.271,1.271-3.32,0-4.59c-1.269-1.27-3.327-1.27-4.597,0l-23.639,23.64
	c-1.27,1.271-1.27,3.33,0,4.59C11.823,39.408,13.881,39.408,15.15,38.138"/>
<line fill="#1D1D1B" x1="13.264" y1="66.548" x2="67.193" y2="12.618"/>
<path fill="#1D1D1B" d="M15.561,68.848l53.932-53.94c1.27-1.26,1.27-3.32,0-4.59s-3.327-1.27-4.596,0l-53.932,53.93
	c-1.27,1.27-1.269,3.33,0,4.6C12.234,70.117,14.292,70.117,15.561,68.848"/>
</svg>
