<?xml version="1.0" encoding="utf-8"?>
<!-- Generator: Adobe Illustrator 14.0.0, SVG Export Plug-In . SVG Version: 6.00 Build 43363)  -->
<!DOCTYPE svg PUBLIC "-//W3C//DTD SVG 1.1//EN" "http://www.w3.org/Graphics/SVG/1.1/DTD/svg11.dtd">
<svg version="1.1" id="Ebene_1" xmlns="http://www.w3.org/2000/svg" xmlns:xlink="http://www.w3.org/1999/xlink" x="0px" y="0px"
	 width="80px" height="80px" viewBox="0 0 80 80" enable-background="new 0 0 80 80" xml:space="preserve">
<path fill="#1D1D1B" d="M29.962,78.566c0.301,0.08,0.602,0.15,0.913,0.222l0.088,0.018l0.027,0.009l0.017,0.008h0.027l0.027,0.009
	h0.027l0.018,0.009h0.017l0.009,0.009h0.027l0.018,0.011h0.017l0.009,0.009h0.027l0.018,0.008h0.026l0.019,0.009h0.027l0.008,0.009
	h0.044l0.009,0.009h0.026l0.008,0.009h0.036l0.018,0.009h0.026l0.01,0.01h0.036l0.008,0.009h0.026l0.01,0.009h0.036l0.017,0.009
	h0.009l0.009,0.009h0.053v0.009h0.027l0.027,0.009c0.05-0.004,0.021,0.012,0.063,0.008l0.035,0.011l0.045,0.009
	c0.033,0,0.089,0.026,0.124,0.026l0.035,0.008h0.009c0.443,0.089,0.895,0.168,1.356,0.239l0.115,0.02l0.044,0.008l0.08,0.018h0.053
	l0.036,0.009h0.009l0.026,0.009h0.045l0.044,0.009h0.008l0.019,0.009h0.026l0.018,0.01h0.062l0.009,0.009h0.053l0.008,0.009h0.054
	l0.009,0.009h0.036l0.009,0.009h0.071l0.008,0.009h0.044l0.017,0.008h0.054v0.009h0.027c0.059-0.003,0.005,0.014,0.097,0.011
	l0.044,0.009c0.497,0.061,1.001,0.114,1.516,0.168l0.328-3.537c-1.871-0.168-3.749-0.497-5.567-0.958L29.962,78.566"/>
<path fill="#1D1D1B" d="M36.069,0.177c-0.266,0.018-0.523,0.053-0.78,0.08h-0.027l-0.053,0.009h-0.044l-0.017,0.009h-0.054
	l-0.009,0.009h-0.018c-0.042,0-0.046,0.013-0.098,0.009h-0.018l-0.035,0.009h-0.044l-0.009,0.009h-0.062l-0.018,0.009h-0.045
	l-0.017,0.009H34.66l-0.017,0.009h-0.045l-0.008,0.008h-0.063l-0.009,0.009h-0.053l-0.009,0.009h-0.053l-0.017,0.008h-0.054
	l-0.009,0.009H34.27l-0.008,0.009h-0.054l-0.009,0.008h-0.027c-0.053-0.002-0.026,0.006-0.063,0.009h-0.035l-0.009,0.009h-0.044
	l-0.009,0.008h-0.026c-0.041-0.001-0.011,0.013-0.071,0.009h-0.008l-0.009,0.009h-0.063l-0.008,0.008h-0.037l-0.017,0.009H33.72
	L33.711,0.47h-0.044l-0.009,0.009h-0.036l-0.036,0.009H33.56l-0.008,0.009h-0.063L33.48,0.505h-0.035L33.41,0.515h-0.026
	l-0.009,0.009h-0.018l-0.044,0.008h-0.035v0.009h-0.044L33.215,0.55h-0.036l-0.044,0.008l-0.018,0.009H33.1l-0.062,0.009H33.02
	v0.009l-0.062,0.009h-0.036l-0.062,0.009h0.009l-0.009,0.009c-0.984,0.168-1.951,0.381-2.908,0.621l0.868,3.431
	c1.463-0.364,2.96-0.647,4.459-0.833c0.373-0.044,0.745-0.088,1.117-0.124L36.069,0.177"/>
<path fill="#1D1D1B" d="M21.026,75.101l0.044,0.025c0.08,0.037,0.174,0.103,0.257,0.134l0.018,0.009v0.009l0.017,0.008l0.027,0.009
	l0.018,0.011v0.009l0.044,0.018l0.018,0.008h0.009l0.018,0.009v0.009l0.018,0.009l0.027,0.009l0.018,0.01l0.018,0.018h0.008
	l0.054,0.026l0.009,0.009l0.017,0.009l0.019,0.01h0.008l0.036,0.018v0.009l0.026,0.009l0.037,0.017h0.008l0.018,0.02l0.018,0.009
	h0.009l0.018,0.009c0.042,0.017,0.038,0.027,0.08,0.043h0.009l0.017,0.009v0.01l0.019,0.009h0.008l0.036,0.018l0.027,0.009
	l0.017,0.009v0.009l0.027,0.008l0.018,0.011l0.018,0.009h0.009l0.035,0.026h0.009l0.018,0.008l0.019,0.009h0.008l0.018,0.009v0.011
	l0.036,0.018h0.008l0.036,0.017h0.009l0.018,0.009V75.8l0.044,0.018l0.018,0.01h0.009l0.036,0.018l0.009,0.009l0.017,0.009
	l0.018,0.009l0.027,0.009l0.036,0.019h0.009l0.018,0.009c0.049,0.04,0.208,0.099,0.265,0.132l0.062,0.027h0.009
	c0.382,0.168,0.772,0.347,1.153,0.506l1.401-3.254c-1.729-0.744-3.414-1.622-5-2.624l-1.888,3.005
	c0.736,0.461,1.49,0.904,2.26,1.313l0.045,0.026l0.062,0.034l0.044,0.02L21.026,75.101"/>
<path fill="#1D1D1B" d="M15.938,12.455l-2.323-2.677c-1.568,1.356-3.013,2.836-4.353,4.423l2.713,2.279
	C13.19,15.043,14.528,13.687,15.938,12.455"/>
<path fill="#1D1D1B" d="M2.96,55.27l0.018,0.045h0.008l0.019,0.043l0.009,0.028c0.753,1.799,1.64,3.528,2.632,5.177l3.031-1.844
	c-0.975-1.605-1.826-3.299-2.535-5.035l-3.28,1.338v0.018c0.029,0.035,0.066,0.161,0.089,0.204L2.96,55.27"/>
<path fill="#1D1D1B" d="M0.966,49.118l3.448-0.815c-0.301-1.276-0.532-2.597-0.7-3.909c-0.071-0.56-0.124-1.126-0.168-1.676
	l-3.537,0.274c0.008,0.107,0.017,0.205,0.026,0.311v0.054l0.009,0.009v0.008c0.027,0.373,0.071,0.736,0.106,1.108h0.009l0.009,0.089
	v0.07h0.009v0.063h0.009v0.018c-0.004,0.083,0.013,0.032,0.009,0.116v0.017h0.009v0.054l0.009,0.009v0.063l0.009,0.009v0.071
	l0.009,0.008v0.045l0.008,0.009v0.009c0,0.018,0,0.035,0,0.054V45.2l0.009,0.009L0.239,45.2l0.009,0.009v0.045l0.009,0.009v0.054
	l0.009,0.043v0.026l0.009,0.01v0.044l0.01,0.017v0.063l0.008,0.02l0.009,0.097l0.009,0.009v0.054h0.008v0.052l0.009,0.011v0.008
	l0.028,0.186v0.036c0.062,0.398,0.132,0.797,0.204,1.196l0.008,0.026v0.036l0.027,0.123v0.02h0.009v0.034l0.009,0.009H0.603
	l0.009,0.018v0.019l0.008,0.009v0.034l0.01,0.009v0.045l0.009,0.018v0.018l0.008,0.011v0.043l0.01,0.009V47.7h0.009v0.054
	l0.008,0.009v0.025C0.762,48.223,0.859,48.675,0.966,49.118"/>
<path fill="#1D1D1B" d="M5.655,19.236L5.62,19.281v0.008l-0.009,0.018l-0.009,0.009v0.009l-0.009,0.009l-0.009,0.018l-0.01,0.009
	v0.009l-0.008,0.008l-0.009,0.01v0.009l-0.009,0.008l-0.008,0.018v0.009l-0.019,0.018l-0.008,0.018l-0.009,0.017l-0.01,0.01
	l-0.008,0.017v-0.008L5.478,19.52v0.009l-0.009,0.018l-0.017,0.018v0.009l-0.01,0.017l-0.018,0.019l-0.009,0.017v0.01l-0.009,0.017
	H5.398l-0.018,0.044c-0.958,1.623-1.8,3.316-2.527,5.07l3.289,1.348c0.709-1.737,1.569-3.431,2.544-5.044L5.655,19.236"/>
<path fill="#1D1D1B" d="M0.23,34.589v0.044l-0.009,0.044l-0.018,0.169v0.009c-0.07,0.497-0.124,1.001-0.169,1.498v0.054
	C0.019,36.526,0.019,36.665,0,36.788v0.009l3.537,0.267c0.142-1.872,0.434-3.75,0.868-5.576l-3.448-0.816
	c-0.196,0.824-0.364,1.667-0.514,2.509v0.054l-0.009,0.026l-0.01,0.044l-0.008,0.044v0.037l-0.009,0.008v0.036l-0.009,0.018v0.027
	L0.39,33.517v0.027l-0.009,0.009v0.035l-0.009,0.009v0.054l-0.008,0.009v0.053L0.355,33.72v0.036l-0.01,0.017v0.054l-0.008,0.018
	v0.036l-0.01,0.018v0.043L0.318,33.96v0.044L0.31,34.013v0.054l-0.009,0.017v0.045l-0.009,0.009
	c0.004,0.085-0.015,0.018-0.008,0.115l-0.01,0.018v0.053H0.266v0.044l-0.009,0.027v0.027l-0.009,0.017v0.027l-0.009,0.044v0.054
	L0.23,34.589"/>
<path fill="#1D1D1B" d="M13.615,70.003l2.332-2.677c-1.427-1.232-2.757-2.59-3.972-4.025l-2.713,2.287
	C10.602,67.174,12.055,68.656,13.615,70.003"/>
<path fill="#1D1D1B" d="M21.461,4.441V4.45l-0.018,0.008h-0.009l-0.009,0.009h-0.009l-0.018,0.009L21.38,4.485l-0.009,0.009
	l-0.017,0.009h-0.009l-0.009,0.009h-0.009l-0.019,0.009l-0.017,0.018h-0.009l-0.017,0.009l-0.018,0.009l-0.027,0.018l-0.018,0.009
	l-0.018,0.008h-0.009l-0.018,0.009V4.61l-0.017,0.009l-0.026,0.009l-0.036,0.027H21.07l-0.062,0.035
	c-0.824,0.434-1.631,0.904-2.42,1.4l1.888,2.997c1.595-0.993,3.271-1.879,5-2.615l-1.392-3.262l-0.018,0.009h-0.009l-0.044,0.017
	v0.009h-0.017c-0.024,0.031-0.121,0.043-0.142,0.071h-0.018v0.009H23.81c-0.056,0.019-0.017,0.017-0.08,0.044h-0.009l-0.018,0.009
	h-0.009l-0.018,0.009l-0.018,0.009H23.65l-0.017,0.009l-0.01,0.009h-0.008l-0.009,0.008h-0.018v0.009H23.57L23.562,3.44h-0.019
	l-0.008,0.008l-0.01,0.009h-0.009L23.5,3.466l-0.009,0.009h-0.009l-0.009,0.009h-0.018l-0.009,0.009h-0.017L23.42,3.501h-0.009
	l-0.009,0.009L23.393,3.52h-0.018l-0.009,0.008c-0.035,0.011-0.028,0.021-0.053,0.019l-0.01,0.008h-0.008l-0.009,0.009l-0.018,0.009
	h-0.018l-0.009,0.009L23.224,3.59h-0.009l-0.017,0.009L23.18,3.608v0.009h-0.027v0.009h-0.018v0.009l-0.017,0.008H23.11
	l-0.028,0.009l-0.008,0.009h-0.009L23.047,3.67h-0.008l-0.01,0.009l-0.027,0.009v0.009l-0.044,0.018
	c-0.063,0.018-0.115,0.058-0.178,0.08l-0.044,0.018v0.009l-0.044,0.018C22.641,3.852,22.636,3.882,22.56,3.9l-0.044,0.018v0.009
	l-0.036,0.018h-0.008l-0.018,0.009h-0.008l-0.01,0.008L22.409,3.98H22.4l-0.035,0.018c-0.053,0.02-0.098,0.052-0.151,0.071
	l-0.027,0.018H22.17v0.009l-0.018,0.009h-0.009l-0.036,0.018l-0.009,0.009L22.082,4.14l-0.018,0.009l-0.027,0.008l-0.044,0.019
	v0.008l-0.018,0.009h-0.009l-0.008,0.009h-0.009l-0.018,0.009L21.921,4.22h-0.009l-0.009,0.009l-0.018,0.008h-0.008l-0.009,0.009
	H21.86l-0.018,0.009l-0.018,0.008h-0.009l-0.009,0.009h-0.009L21.78,4.282l-0.01,0.009h-0.008l-0.019,0.009h-0.008l-0.009,0.009
	l-0.009,0.009L21.7,4.326h-0.009l-0.008,0.009h-0.01l-0.017,0.008v0.009h-0.018L21.62,4.37h-0.018l-0.009,0.009h-0.009l-0.017,0.009
	l-0.009,0.009h-0.009l-0.009,0.009l-0.018,0.009h-0.009l-0.009,0.009h-0.009l-0.018,0.009L21.461,4.441"/>
<path fill="#1D1D1B" d="M39.774,0v79.78c22.038,0,39.89-17.854,39.89-39.89C79.664,17.862,61.812,0,39.774,0"/>
</svg>
