<?xml version="1.0" encoding="utf-8"?>
<!-- Generator: Adobe Illustrator 14.0.0, SVG Export Plug-In . SVG Version: 6.00 Build 43363)  -->
<!DOCTYPE svg PUBLIC "-//W3C//DTD SVG 1.1//EN" "http://www.w3.org/Graphics/SVG/1.1/DTD/svg11.dtd">
<svg version="1.1" id="Ebene_1" xmlns="http://www.w3.org/2000/svg" xmlns:xlink="http://www.w3.org/1999/xlink" x="0px" y="0px"
	 width="80px" height="80px" viewBox="0 0 80 80" enable-background="new 0 0 80 80" xml:space="preserve">
<path fill="#1D1D1B" d="M30.381,2.284c-0.707-1.832-2.766-2.748-4.598-2.05C10.942,5.889,0.849,19.772,0.05,35.639
	c-1.101,22.076,15.9,40.867,37.969,41.97c0.631,0.04,1.269,0.04,1.908,0.04C56.583,77.675,71.5,67.364,77.375,51.782
	c0.269-0.706,0.31-1.479,0.107-2.21c-0.521-1.9-2.469-3.018-4.369-2.495c-2.992,0.823-6.075,1.235-9.176,1.227
	c-3.085,0-6.153-0.411-9.119-1.227c-18.479-5.043-29.372-24.111-24.33-42.591C30.683,3.763,30.649,2.99,30.381,2.284 M71.055,53.034
	c-3.362,6.74-8.832,12.203-15.573,15.557c-17.144,8.546-37.968,1.57-46.506-15.574C0.429,35.874,7.404,15.049,24.548,6.502
	l-0.009,0.042c-0.411,2.337-0.622,4.714-0.622,7.093c0,2.354,0.211,4.698,0.631,7.009C28.447,42.438,49.263,56.935,71.055,53.034z"
	/>
<path fill="#1D1D1B" d="M79.601,19.024c0.749-1.378,0.236-3.109-1.143-3.857l-7.698-4.227l-4.228-7.707
	c-0.26-0.479-0.646-0.865-1.125-1.125c-1.379-0.757-3.11-0.252-3.867,1.125l-4.217,7.682l-7.717,4.227
	c-0.47,0.26-0.864,0.647-1.124,1.126c-0.757,1.378-0.252,3.109,1.124,3.866l7.725,4.202l4.209,7.722
	c0.507,0.908,1.463,1.471,2.507,1.471c1.033,0,1.991-0.571,2.485-1.479l4.228-7.681l7.698-4.202
	C78.938,19.907,79.332,19.511,79.601,19.024 M66.819,20.377l-2.772,5.092l-2.773-5.067l-5.102-2.782l5.102-2.773l2.806-5.093
	l2.772,5.093l5.085,2.773L66.819,20.377z"/>
</svg>
