<?xml version="1.0" encoding="utf-8"?>
<!-- Generator: Adobe Illustrator 14.0.0, SVG Export Plug-In . SVG Version: 6.00 Build 43363)  -->
<!DOCTYPE svg PUBLIC "-//W3C//DTD SVG 1.1//EN" "http://www.w3.org/Graphics/SVG/1.1/DTD/svg11.dtd">
<svg version="1.1" id="Ebene_1" xmlns="http://www.w3.org/2000/svg" xmlns:xlink="http://www.w3.org/1999/xlink" x="0px" y="0px"
	 width="80px" height="80px" viewBox="0 0 80 80" enable-background="new 0 0 80 80" xml:space="preserve">
<path fill="#1D1D1B" d="M0,32.566c0,12.222,6.991,23.529,17.858,29.048C23.241,72.2,34.236,79.479,46.905,79.479
	c17.959,0,32.568-14.614,32.568-32.574c0-12.666-7.275-23.659-17.862-29.046C56.092,6.995,44.788,0,32.569,0
	C14.611,0,0,14.614,0,32.566 M21.179,58.32c-0.061-0.131-0.125-0.27-0.184-0.407c-0.541-1.266-0.988-2.574-1.333-3.912l5.819,5.824
	C24.015,59.439,22.579,58.945,21.179,58.32z M64.17,24.692c6.62,5.155,10.889,13.189,10.889,22.212
	c0,15.524-12.63,28.153-28.153,28.153c-9.022,0-17.061-4.268-22.216-10.885c2.558,0.633,5.189,0.967,7.88,0.967
	c17.96,0,32.57-14.614,32.57-32.566C65.14,29.883,64.807,27.252,64.17,24.692z M58.322,21.18c0.621,1.396,1.119,2.836,1.5,4.297
	l-5.819-5.817C55.484,20.046,56.926,20.555,58.322,21.18z M46.85,18.752l13.873,13.873c-0.003,1.941-0.204,3.833-0.583,5.664
	L41.188,19.333C43.018,18.956,44.911,18.759,46.85,18.752z M36.401,20.788l22.283,22.286c-0.584,1.447-1.28,2.843-2.088,4.158
	l-24.352-24.35C33.562,22.075,34.954,21.377,36.401,20.788z M28.633,25.514l25.332,25.332c-0.959,1.119-2.003,2.159-3.124,3.119
	L25.51,28.633C26.469,27.513,27.512,26.466,28.633,25.514z M22.878,32.246L47.23,56.597c-1.318,0.808-2.71,1.505-4.157,2.087
	L20.791,36.398C21.375,34.952,22.072,33.563,22.878,32.246z M19.334,41.19l18.951,18.947c-1.829,0.379-3.722,0.581-5.661,0.589
	L18.752,46.854C18.754,44.912,18.956,43.015,19.334,41.19z"/>
</svg>
