<svg width="20" height="16" viewBox="0 0 20 16" fill="none" xmlns="http://www.w3.org/2000/svg">
<path fill-rule="evenodd" clip-rule="evenodd" d="M10.3416 0.160645C10.3556 0.177246 11.7603 1.84729 13.1449 3.89746C15.0394 6.70239 16 8.86255 16 10.3179C16 12.0199 15.3839 13.4685 14.218 14.5071C13.1374 15.4698 11.6394 16 10 16C8.36072 16 6.86272 15.4698 5.78211 14.5072C4.61627 13.4686 4 12.02 4 10.3179C4 8.86255 4.96058 6.70239 6.85505 3.89746C8.23082 1.86049 9.62639 0.198764 9.65796 0.16117L9.6584 0.160645C9.74457 0.0585938 9.8691 0 10 0C10.1309 0 10.2555 0.0585938 10.3416 0.160645ZM10 15.0625C11.4223 15.0625 12.7102 14.613 13.6263 13.7969C14.5862 12.9418 15.0935 11.7388 15.0935 10.3179C15.0935 9.07605 14.1628 7.0415 12.4018 4.43433C11.4516 3.02734 10.4936 1.80542 10 1.1936C9.50543 1.80676 8.54462 3.03247 7.59372 4.44104C5.83569 7.04504 4.90652 9.07715 4.90652 10.3179C4.90652 11.7388 5.41383 12.9418 6.3737 13.7969C7.2899 14.613 8.57767 15.0625 10 15.0625ZM13.0464 10.5595C13.0464 10.2505 13.26 10 13.5232 10C13.7866 10 14 10.2505 14 10.5595C14 11.9394 13.5922 13.0513 12.7879 13.8643C12.6979 13.9554 12.5871 14 12.477 14C12.343 14 12.2098 13.9341 12.1156 13.8056C11.9437 13.5715 11.9661 13.2181 12.1656 13.0165C12.75 12.4256 13.0464 11.599 13.0464 10.5595Z" fill="black"/>
</svg>
