<svg width="20" height="17" viewBox="0 0 20 17" fill="none" xmlns="http://www.w3.org/2000/svg">
<path fill-rule="evenodd" clip-rule="evenodd" d="M18 8.01165C18 12.4374 14.4145 16.0233 9.98835 16.0233V0C14.4145 0 18 3.58747 18 8.01165ZM9.24423 0.0355491C9.20722 0.0380532 9.17109 0.0421955 9.13522 0.0463073C9.1193 0.0481317 9.10344 0.04995 9.08757 0.0516166H9.08215L9.07151 0.0534242H9.06267L9.05925 0.0552318H9.04841L9.0466 0.0570394H9.04299C9.0393 0.0570394 9.03707 0.0575372 9.03486 0.0580312C9.03201 0.0586685 9.02919 0.0592995 9.0233 0.0588469H9.01969L9.01266 0.0606545H9.00382L9.00201 0.0624621H8.98956L8.98595 0.0642697H8.97691L8.97349 0.0660773H8.96124L8.95783 0.0678849H8.94879L8.94718 0.0694916H8.93453L8.93272 0.0712992H8.92208L8.92027 0.0731068H8.90963L8.90621 0.0747136H8.89537L8.89356 0.0765212H8.88291L8.88131 0.0783288H8.87046L8.86865 0.0799355H8.86323C8.85712 0.079705 8.8563 0.0801359 8.85531 0.0806589C8.85458 0.0810473 8.85374 0.0814864 8.85058 0.0817431H8.84355L8.84174 0.0835507H8.8329L8.8311 0.0851574H8.82587C8.82221 0.0850682 8.82137 0.085574 8.82051 0.0860931C8.81942 0.0867419 8.81831 0.0874114 8.81161 0.086965H8.81001L8.8082 0.0887726H8.79555L8.79394 0.0903794H8.78651L8.78309 0.092187H8.77245L8.77064 0.0943962H8.7618L8.76 0.0962038H8.75277L8.74554 0.0980114H8.74031L8.73871 0.099819H8.72605L8.72425 0.101426H8.71722L8.71019 0.103434H8.70497L8.70316 0.105242H8.69954L8.69071 0.106849H8.68368V0.108656H8.67484L8.67102 0.110464H8.66379L8.65495 0.11207L8.65134 0.113878H8.64793L8.63547 0.115686H8.63186V0.117493L8.61941 0.119301H8.61218L8.59972 0.121108H8.60153L8.59972 0.122916C8.40209 0.156658 8.20788 0.199437 8.01567 0.24764L8.19 0.936734C8.48384 0.863627 8.7845 0.806788 9.08556 0.769432L9.08883 0.769047C9.16265 0.760338 9.23628 0.751652 9.30991 0.744527L9.24423 0.0355491ZM8.01768 15.7795C8.07813 15.7955 8.13859 15.8096 8.20105 15.8241L8.21872 15.8277L8.22415 15.8295L8.22756 15.8311H8.23298L8.23841 15.8329H8.24383L8.24744 15.8347H8.25086L8.25267 15.8365H8.25809L8.2617 15.8387H8.26512L8.26693 15.8405H8.27235L8.27596 15.8421H8.28119L8.285 15.8439H8.29042L8.29203 15.8458H8.30087L8.30268 15.8476H8.3079L8.3095 15.8494H8.31673L8.32035 15.8512H8.32557L8.32758 15.8532H8.33481L8.33642 15.855H8.34164L8.34365 15.8568H8.35088L8.35429 15.8586H8.3561L8.35791 15.8604H8.36855V15.8622H8.37398L8.3794 15.864C8.38461 15.8636 8.38555 15.8643 8.38643 15.8649C8.38724 15.8655 8.388 15.866 8.39205 15.8656L8.39908 15.8678L8.40812 15.8697C8.41138 15.8697 8.41577 15.8709 8.42022 15.8722C8.4248 15.8735 8.42946 15.8749 8.43302 15.8749L8.44005 15.8765H8.44186C8.53083 15.8944 8.62162 15.9102 8.7142 15.9245L8.7373 15.9285L8.74614 15.9301L8.76221 15.9337H8.77285L8.78008 15.9355H8.78189L8.78711 15.9373H8.79615L8.80499 15.9391H8.80659L8.81041 15.941H8.81563L8.81925 15.943H8.8317L8.83351 15.9448H8.84415L8.84576 15.9466H8.8566L8.85841 15.9484H8.86564L8.86745 15.9502H8.88171L8.88331 15.952H8.89215L8.89557 15.9536H8.90641V15.9554H8.91183C8.91714 15.9551 8.9179 15.9557 8.91877 15.9563C8.91985 15.9571 8.92111 15.958 8.93132 15.9576L8.94015 15.9594C9.03997 15.9717 9.1412 15.9823 9.24463 15.9932L9.31051 15.2828C8.93473 15.249 8.55755 15.183 8.19241 15.0904L8.01768 15.7795ZM6.23177 15.0886L6.22294 15.0836L6.22073 15.0823L6.21189 15.0783L6.19944 15.0715L6.1904 15.0663C6.03575 14.9841 5.88432 14.8952 5.73649 14.8026L6.11569 14.199C6.43423 14.4003 6.77265 14.5766 7.11991 14.7261L6.83852 15.3796C6.78631 15.3578 6.73325 15.3341 6.68044 15.3106L6.68035 15.3106L6.60695 15.278H6.60514L6.59269 15.2725C6.58819 15.2699 6.58053 15.2665 6.57228 15.2629L6.57227 15.2629C6.55954 15.2572 6.54544 15.2509 6.53947 15.246L6.53585 15.2442H6.53404L6.52681 15.2404L6.52139 15.2386L6.51778 15.2368L6.51436 15.235L6.51255 15.2332L6.50532 15.2296H6.50352L6.4999 15.2276L6.49106 15.2239V15.2241L6.48745 15.2223H6.48564L6.47841 15.2189H6.4768L6.46957 15.2153V15.2131L6.46596 15.2113H6.46435L6.46054 15.2095L6.45692 15.2079H6.45511L6.44808 15.2027H6.44628L6.44266 15.2008L6.43905 15.1986L6.43362 15.197V15.1952L6.43021 15.1934L6.42479 15.1916L6.41756 15.188H6.41595L6.41213 15.1862V15.1842L6.40872 15.1824H6.40691C6.40261 15.1807 6.40071 15.1794 6.39877 15.178C6.39689 15.1767 6.39498 15.1754 6.39084 15.1737L6.38723 15.1719H6.38542L6.3818 15.1701L6.37819 15.1661H6.37658L6.36915 15.1627L6.36393 15.1609V15.1591L6.3567 15.1555H6.35509L6.35128 15.1534L6.34786 15.1516L6.34606 15.1498L6.33521 15.1446H6.3336L6.32999 15.141L6.32637 15.139L6.32095 15.1372L6.31733 15.1354V15.1336L6.31372 15.1318H6.31191L6.3083 15.1301L6.29946 15.1265V15.1247L6.29584 15.1225L6.29042 15.1207L6.28701 15.1191V15.1173L6.28339 15.1155C6.27376 15.1119 6.26339 15.1059 6.25325 15.1001C6.24584 15.0959 6.23856 15.0917 6.23177 15.0886ZM5.20105 2.50151L4.73449 1.96385C4.41956 2.23619 4.12934 2.53344 3.86021 2.85218L4.4051 3.3099C4.64913 3.02129 4.91786 2.74895 5.20105 2.50151ZM2.59811 11.1097L2.59449 11.1006L2.59269 11.0954C2.59085 11.092 2.58858 11.0859 2.58614 11.0795C2.58243 11.0696 2.57833 11.0587 2.57481 11.0544V11.0508L3.23358 10.7821C3.37598 11.1307 3.54689 11.471 3.74272 11.7933L3.13396 12.1637C2.93472 11.8325 2.75657 11.4852 2.60534 11.1239L2.60353 11.1183L2.59972 11.1097H2.59811ZM2.19401 9.86504L2.88651 9.70135C2.82606 9.44507 2.77967 9.17976 2.74592 8.91625C2.73166 8.80378 2.72102 8.6901 2.71218 8.57964L2.0018 8.63467C2.00295 8.65013 2.00421 8.66466 2.0055 8.67952L2.0055 8.67953L2.00702 8.69713V8.70797L2.00883 8.70978V8.71139C2.01233 8.7597 2.01724 8.80718 2.02218 8.85484L2.02218 8.85486C2.0249 8.8811 2.02762 8.9074 2.03012 8.93392H2.03193L2.03373 8.9518V8.96586H2.03554V8.97851H2.03735V8.98213C2.03695 8.99044 2.0376 8.99206 2.03825 8.99369C2.0389 8.99532 2.03956 8.99697 2.03916 9.00542V9.00884H2.04096V9.01968L2.04277 9.02149V9.03414L2.04458 9.03595V9.05021L2.04639 9.05182V9.06086L2.04799 9.06266V9.06447V9.07532V9.07813L2.0498 9.07994V9.08898L2.05161 9.09078V9.10163L2.05342 9.11026V9.11549L2.05522 9.11749V9.12633L2.05723 9.12975V9.1424L2.05884 9.14642L2.06065 9.1659L2.06245 9.16771V9.17855H2.06406V9.189L2.06587 9.19121V9.19281L2.07149 9.23017V9.2374C2.08394 9.31733 2.098 9.39747 2.11246 9.47761L2.11407 9.48283V9.49006L2.11949 9.51476V9.51878H2.1213V9.52561L2.12311 9.52742H2.1211L2.12291 9.53103V9.53485L2.12451 9.53666V9.54348L2.12652 9.54529V9.55433L2.12833 9.55795V9.56156L2.12994 9.56377V9.57241L2.13195 9.57421V9.58024H2.13375V9.59108L2.13536 9.59289V9.59791C2.15303 9.68528 2.17252 9.77606 2.19401 9.86504ZM3.12875 3.87246L3.13578 3.86343L3.74453 4.23218C3.54871 4.55614 3.37598 4.89636 3.23359 5.24523L2.57301 4.97449C2.71902 4.62221 2.88814 4.28219 3.08054 3.95622L3.08416 3.94738H3.08577L3.08757 3.94396V3.94196L3.08938 3.93854L3.093 3.93473L3.095 3.93131V3.9295L3.09842 3.92589L3.10023 3.92227V3.92047L3.10183 3.91725V3.91886L3.10344 3.91545L3.10545 3.91344L3.10726 3.91002L3.10886 3.90641L3.11268 3.90279V3.90098L3.11428 3.89737L3.11609 3.89576V3.89395L3.1179 3.89195L3.11951 3.89034V3.88853L3.12152 3.88672L3.12332 3.88311L3.12513 3.8813V3.87949L3.12694 3.87769L3.12875 3.87407V3.87246ZM2.04619 6.94698V6.95582L2.04439 6.96465L2.04077 6.9986V7.0004C2.02671 7.10022 2.01587 7.20145 2.00683 7.30127V7.31211C2.00548 7.32283 2.00473 7.33436 2.00398 7.34604C2.00305 7.36041 2.0021 7.37501 2 7.38863V7.39044L2.71038 7.44407C2.7389 7.06809 2.79755 6.6909 2.88472 6.32416L2.19221 6.16027C2.15284 6.32577 2.1191 6.49508 2.08897 6.66419V6.67504L2.08717 6.68026L2.08516 6.6891L2.08355 6.69793V6.70536L2.08174 6.70697V6.7142L2.07994 6.71782V6.72324L2.07833 6.73167V6.7371L2.07652 6.7389V6.74593L2.07471 6.74774V6.75859L2.07311 6.7604V6.77104L2.0713 6.77245V6.77968L2.06929 6.78309V6.79394L2.06768 6.79755V6.80478L2.06568 6.8084V6.81703L2.06387 6.82065V6.82949L2.06226 6.83129V6.84214L2.06045 6.84555V6.85459L2.05865 6.8564C2.05903 6.86457 2.05836 6.86575 2.0577 6.86689C2.05699 6.86813 2.05631 6.86934 2.05704 6.87949L2.05503 6.88311V6.89376H2.05342V6.90259L2.05162 6.90801V6.91344L2.04981 6.91685V6.92227L2.048 6.93111V6.94196L2.04619 6.94698ZM5.20285 13.522L4.73449 14.0597C4.42117 13.7891 4.12934 13.4915 3.86021 13.1729L4.4051 12.7136C4.64913 13.0018 4.91625 13.2746 5.20285 13.522ZM6.31031 0.891946V0.893754L6.30669 0.895361H6.30488L6.30307 0.897168H6.30127L6.29765 0.898976L6.29404 0.900784L6.29223 0.902591L6.28882 0.904399H6.28701L6.2852 0.906206H6.28339L6.27958 0.908014L6.27616 0.911629H6.27435L6.27094 0.913437L6.26732 0.915244L6.2619 0.918859L6.25829 0.920667L6.25467 0.922274H6.25286L6.24925 0.924081V0.925889L6.24583 0.927697L6.24061 0.929504L6.23338 0.934927H6.23178L6.21932 0.941956C6.05383 1.02912 5.89175 1.12352 5.73328 1.22314L6.11247 1.82507C6.43282 1.62563 6.76943 1.44768 7.11669 1.29986L6.83712 0.644708L6.8335 0.646516H6.83169L6.82286 0.64993V0.651737H6.81944C6.81698 0.654921 6.81068 0.657107 6.80455 0.659234C6.79869 0.661268 6.79298 0.663249 6.79092 0.665997H6.78731V0.667805H6.78209C6.77643 0.669723 6.7756 0.670576 6.77456 0.671638C6.77354 0.672689 6.77231 0.673945 6.76602 0.676642H6.76421L6.7606 0.67845H6.75879L6.75517 0.680257L6.75156 0.682065H6.74995L6.74654 0.683872L6.74453 0.68568H6.74292L6.74111 0.687287H6.7375V0.689094H6.73388L6.73228 0.690902H6.72846L6.72685 0.692509L6.72485 0.694316H6.72304L6.71983 0.696124L6.71802 0.697931H6.71621L6.7144 0.699739H6.71079L6.70898 0.701547H6.70557L6.70376 0.703153H6.70195L6.70014 0.704961L6.69833 0.706969H6.69472L6.69291 0.708576C6.68979 0.709558 6.68833 0.7105 6.68723 0.711209C6.68586 0.712095 6.68506 0.712615 6.68227 0.712392L6.68026 0.713999H6.67865L6.67684 0.715807L6.67323 0.717614H6.66961L6.66781 0.719422L6.66439 0.721028H6.66258L6.65917 0.722836L6.65556 0.724644V0.726451H6.65013V0.728259H6.64652V0.730066L6.6431 0.731673H6.6415L6.63587 0.733481L6.63427 0.735288H6.63246L6.62884 0.737096H6.62724L6.62523 0.738904L6.61981 0.740711V0.742519L6.61097 0.746134C6.60415 0.748082 6.59797 0.751313 6.59175 0.75457C6.58642 0.757357 6.58105 0.760164 6.57522 0.762201L6.56638 0.765817V0.767624L6.55754 0.771239C6.55293 0.772326 6.55019 0.774147 6.54717 0.77615C6.5435 0.778592 6.53942 0.781304 6.53103 0.78329L6.5222 0.786905V0.788713L6.51496 0.792328H6.51336L6.50974 0.794136H6.50814L6.50613 0.795742L6.5007 0.799357H6.4989L6.49187 0.802973C6.4867 0.804921 6.48192 0.807436 6.47715 0.809945C6.47208 0.81261 6.46702 0.815267 6.46154 0.817232L6.45612 0.820848H6.4527V0.822655L6.44909 0.824463H6.44728L6.44005 0.828078L6.43824 0.829886L6.43503 0.831492L6.43141 0.8333L6.42599 0.834907L6.41715 0.838723V0.84033L6.41354 0.842137H6.41173L6.41012 0.843945H6.40832L6.4047 0.845752L6.40269 0.84756H6.40089L6.39908 0.849368L6.39546 0.850974H6.39386L6.39205 0.852782H6.39044L6.38683 0.854589L6.38321 0.856196H6.3814L6.3796 0.858004H6.37779L6.37437 0.860012L6.37237 0.86182H6.37076L6.36694 0.863627H6.36534L6.36353 0.865435L6.36172 0.867243L6.35831 0.868849H6.3565L6.35489 0.870657H6.35288L6.34947 0.872264V0.874071H6.34585L6.34224 0.877686H6.33862L6.33682 0.879494H6.33501L6.33159 0.881302L6.32979 0.883109H6.32798L6.32617 0.884917L6.32256 0.886724H6.32075L6.31894 0.888532H6.31713L6.31352 0.89034L6.31031 0.891946Z" fill="black"/>
</svg>
