<svg width="20" height="17" viewBox="0 0 20 17" fill="none" xmlns="http://www.w3.org/2000/svg">
<path d="M12.2342 5.38581C10.8564 5.38581 10.1037 5.87074 10.1037 6.11915C10.1037 6.36756 10.8564 6.8527 12.2342 6.8527C13.6138 6.8527 14.3662 6.36777 14.3662 6.11915C14.3662 5.87074 13.6138 5.38581 12.2342 5.38581ZM12.2342 6.76834C10.8251 6.76834 10.1878 6.27002 10.1878 6.11915C10.1878 5.96849 10.8251 5.46996 12.2342 5.46996C13.6435 5.46996 14.2823 5.96827 14.2823 6.11915C14.2823 6.27002 13.6435 6.76834 12.2342 6.76834Z" fill="black"/>
<path d="M12.2342 4.6716C10.6122 4.6716 9.388 5.29401 9.388 6.11915C9.388 6.94429 10.6122 7.56691 12.2342 7.56691C13.8579 7.56691 15.0807 6.94429 15.0807 6.11915C15.0807 5.29401 13.8579 4.6716 12.2342 4.6716ZM12.2342 7.48404C10.6596 7.48404 9.47236 6.8969 9.47236 6.11915C9.47236 5.3414 10.6596 4.75448 12.2342 4.75448C13.8091 4.75448 14.9978 5.3414 14.9978 6.11915C14.9978 6.8969 13.8091 7.48404 12.2342 7.48404Z" fill="black"/>
<path d="M12.2342 4.75448C10.6596 4.75448 9.47235 5.3414 9.47235 6.11915C9.47235 6.8969 10.6596 7.48404 12.2342 7.48404C13.8091 7.48404 14.9978 6.8969 14.9978 6.11915C14.9978 5.3414 13.8091 4.75448 12.2342 4.75448ZM12.2342 6.8527C10.8564 6.8527 10.1037 6.36777 10.1037 6.11915C10.1037 5.87095 10.8564 5.38581 12.2342 5.38581C13.6138 5.38581 14.3662 5.87074 14.3662 6.11915C14.3662 6.36756 13.6138 6.8527 12.2342 6.8527Z" fill="black"/>
<path d="M12.7519 9.56441V9.58035H1.71423V13.144H2.48136V12.2434H3.11291V13.144H3.88025V11.5441H4.5101V13.144H5.27743V12.2434H5.90898V13.144H6.67611V11.5441H7.30766V13.144H8.075V12.2434H8.70485V13.144H9.47218V11.5441H10.1035V13.144H10.8709V12.2434H11.5022V13.144H11.6543C11.7772 13.144 11.9933 13.141 12.2683 13.128V11.5441H12.8998V13.0819C13.1391 13.0598 13.3996 13.0273 13.6669 12.9857V12.0808H14.2985V12.866C14.4668 12.8291 14.634 12.7861 14.801 12.7387C14.8869 12.7137 14.9681 12.6869 15.0495 12.6605V11.5439H15.6795V12.4106C16.6628 11.9461 17.1623 11.2823 17.1623 10.432V7.71736C16.3092 8.73354 14.671 9.45497 12.7519 9.56441ZM17.0782 10.4323C17.0782 11.21 16.6362 11.8294 15.7637 12.2763V11.4601H14.9655V12.5998C14.9047 12.6204 14.8412 12.6397 14.7775 12.6573C14.6519 12.6943 14.5203 12.7281 14.3814 12.7608V11.9963H13.5828V12.913C13.3847 12.9425 13.1833 12.9693 12.984 12.9884V11.4601H12.1854V13.0481C11.9357 13.0583 11.7481 13.0598 11.6546 13.0598H11.5853V12.1593H10.7871V13.0596H10.1881V11.4601H9.38825V13.0596H8.78921V12.1593H7.99106V13.0596H7.39053V11.4601H6.59196V13.0596H5.99335V12.1593H5.1952V13.0596H4.59467V11.4601H3.79652V13.0596H3.19748V12.1593H2.39742V13.0596H1.79838V9.66471H12.8361V9.6441C14.6058 9.52574 16.1689 8.89589 17.0782 7.93773V10.4323Z" fill="black"/>
<path d="M7.30786 7.71736V8.94944H9.04059C8.31766 8.63133 7.72032 8.20994 7.30786 7.71736ZM7.39031 7.93645C7.72755 8.28984 8.16232 8.60476 8.66935 8.86635H7.39031V7.93645V7.93645Z" fill="black"/>
<path d="M12.2342 3.28907C9.51804 3.28907 7.30762 4.5577 7.30762 6.11936C7.30762 7.6806 9.51804 8.94944 12.2342 8.94944C14.9519 8.94944 17.1621 7.68039 17.1621 6.11936C17.1623 4.5577 14.9519 3.28907 12.2342 3.28907ZM12.2342 8.86635C9.56394 8.86635 7.39028 7.63321 7.39028 6.11936C7.39028 4.60509 9.56394 3.37216 12.2342 3.37216C14.906 3.37216 17.0779 4.60509 17.0779 6.11936C17.0779 7.63321 14.906 8.86635 12.2342 8.86635Z" fill="black"/>
<path d="M17.8634 5.86797C17.6562 4.01519 15.2075 2.57359 12.2342 2.57359C9.26072 2.57359 6.81209 4.01519 6.60681 5.86797H6.59215V8.86635H1V13.8597H11.6545C12.2049 13.8597 14.1166 13.811 15.6678 13.1869H15.6797L15.7639 13.1752V13.1469C17.167 12.5556 17.878 11.6418 17.878 10.4323V5.95212L17.8708 5.86797H17.8634ZM17.7939 10.4323C17.7939 11.8029 16.8429 12.6134 15.6795 13.0908V13.1027H15.6512C14.121 13.7237 12.2342 13.7753 11.6543 13.7753H1.08287V8.94944H6.6763V5.95212H6.68395C6.82441 4.11995 9.25966 2.65774 12.2344 2.65774C15.2094 2.65774 17.646 4.11995 17.7869 5.95212H17.7941V10.4323H17.7939Z" fill="black"/>
<path d="M12.2342 2.65774C9.25925 2.65774 6.82421 4.11995 6.68375 5.95213H6.6761V8.94944H1.08289V13.7751H11.6545C12.2345 13.7751 14.1208 13.7235 15.6515 13.1025H15.6797V13.0906C16.8434 12.6132 17.7941 11.8027 17.7941 10.4321V5.95213H17.7869C17.6458 4.11995 15.2092 2.65774 12.2342 2.65774ZM7.30786 7.71736C7.72032 8.20973 8.31766 8.63111 9.04059 8.94944H7.30786V7.71736ZM17.1623 10.4323C17.1623 11.2825 16.6627 11.9463 15.6795 12.4109V11.5441H15.0494V12.6608C14.9681 12.6871 14.8869 12.7139 14.801 12.739C14.634 12.7863 14.4668 12.8293 14.2985 12.8662V12.0811H13.6669V12.9859C13.3994 13.0275 13.1391 13.06 12.8998 13.0821V11.5443H12.2682V13.1283C11.9933 13.1414 11.7772 13.1442 11.6543 13.1442H11.5022V12.2436H10.8708V13.1442H10.1035V11.5443H9.47239V13.1442H8.70505V12.2436H8.0752V13.1442H7.30786V11.5443H6.67631V13.1442H5.90919V12.2436H5.27764V13.1442H4.5103V11.5443H3.88045V13.1442H3.1129V12.2436H2.48135V13.1442H1.71422V9.58056H12.7519V9.56463C14.671 9.45519 16.3091 8.73375 17.1623 7.71779V10.4323V10.4323ZM12.2342 8.94944C9.51807 8.94944 7.30765 7.68039 7.30765 6.11915C7.30765 4.55791 9.51807 3.28908 12.2342 3.28908C14.9519 3.28908 17.1621 4.5577 17.1621 6.11915C17.1621 7.6806 14.9519 8.94944 12.2342 8.94944Z" fill="black"/>
</svg>
