<svg width="20" height="16" viewBox="0 0 20 16" fill="none" xmlns="http://www.w3.org/2000/svg">
<path d="M3.08256 1.08171C3.02752 1.13608 3 1.47588 3 2.16228C3 2.96421 3.02064 3.17489 3.1032 3.24285C3.19263 3.31761 3.20639 4.05838 3.20639 9.1622V15H9.74219H16.278V9.18259V3.36518L16.5738 3.07975C17.0692 2.61082 17.138 1.93801 16.7527 1.40113C16.45 0.979771 16.7871 1.00016 9.65963 1.00016C4.69931 1.00016 3.14448 1.02055 3.08256 1.08171ZM16.161 1.62539C16.3949 1.74093 16.4775 1.89044 16.4844 2.16908C16.4844 2.33898 16.4362 2.4749 16.3468 2.56325C16.2092 2.69917 16.1197 2.69917 10.2788 2.69917H4.34156V2.15549V1.6186L4.65115 1.59141C4.82314 1.57782 7.44434 1.56423 10.4852 1.55743C14.5787 1.54384 16.0509 1.56423 16.161 1.62539ZM3.7499 1.7885C3.83245 1.89044 3.89437 2.05355 3.89437 2.15549C3.89437 2.33898 3.66734 2.69917 3.5435 2.69917C3.5091 2.69917 3.48158 2.45451 3.48158 2.15549C3.48158 1.85646 3.5091 1.6118 3.5435 1.6118C3.5779 1.6118 3.67422 1.69336 3.7499 1.7885ZM15.59 7.64669C15.59 10.0389 15.6106 12.4515 15.6382 13.0156L15.6794 14.0486H9.79035H3.89437V8.67968V3.31081H9.74219H15.59V7.64669Z" fill="black"/>
</svg>
