<svg width="20" height="16" viewBox="0 0 20 16" fill="none" xmlns="http://www.w3.org/2000/svg">
<path d="M10.2905 12.235C11.2911 12.9764 11.4972 13.5598 11.491 14.0515C11.9115 13.7075 12.4562 13.0666 12.4618 12.3604C12.4671 11.7245 12.0316 11.1444 11.1662 10.6386C9.71605 9.79014 9.1107 8.72391 9.36161 7.46454C8.17412 8.18153 6.48405 10.1574 6.83517 12.1312C6.94175 12.7326 7.19394 13.2788 7.5573 13.7039C7.57872 12.9626 7.86839 11.4747 9.70253 10.5113L9.97231 10.3688L9.95472 10.6541C9.92488 11.1458 9.98889 12.01 10.2905 12.235ZM9.65485 10.4338C7.97115 11.3197 7.55883 12.634 7.47774 13.4496C7.20745 13.0678 7.01698 12.6091 6.92926 12.1169C6.59573 10.2397 8.14735 8.40936 9.23335 7.65697C9.07806 8.8636 9.70916 9.89069 11.1147 10.7129C11.95 11.2016 12.3715 11.7552 12.3664 12.3602C12.3613 12.9562 11.9444 13.5085 11.5762 13.8525C11.5257 13.4044 11.2626 12.8428 10.3505 12.1666C10.0937 11.9744 10.0195 11.1538 10.0498 10.6588L10.0771 10.212L9.65485 10.4338Z" fill="#1D1D1B"/>
<path d="M5.25117 14.4814C6.43279 15.4464 8.02291 16 9.6138 16C12.8292 16 15.5604 13.8823 15.9669 11.0748C16.1816 9.59606 15.3521 8.13653 13.4935 6.73114C12.0635 5.78633 12.9888 3.2376 12.998 3.21275L13.0919 2.96336L12.8101 2.89633C12.7277 2.87805 12.1193 2.76296 11.245 3.10728C11.387 1.64446 12.2761 0.48401 12.2853 0.471588L12.4937 0.204855L12.156 0.0993803C11.9462 0.0342205 11.7078 0 11.4477 0C10.0027 0 7.9176 1.04701 6.25864 2.60475C5.00842 3.7788 2.92362 6.24877 3.00216 9.59934C3.05009 11.6303 3.82756 13.3179 5.25117 14.4814ZM7.83396 1.46258C9.47483 0.358144 11.1195 -0.13196 12.1244 0.182822L12.3401 0.249623L12.2073 0.420491C12.1974 0.432914 11.2332 1.68337 11.1374 3.24861C12.0933 2.82836 12.7591 2.97532 12.7894 2.98188L12.9672 3.02383L12.9075 3.18392C12.8976 3.21017 11.9424 5.81492 13.4376 6.8031L13.4468 6.80943C15.2656 8.18552 16.0819 9.61739 15.8728 11.0633C15.4724 13.8268 12.782 15.9114 9.61405 15.9114C8.04663 15.9114 6.47946 15.3657 5.31492 14.4144C3.91171 13.268 3.14495 11.6017 3.09778 9.59606C3.01363 6.00642 5.48908 3.04048 7.83396 1.46258Z" fill="#1D1D1B"/>
<path d="M9.7543 13.0167L9.6602 12.941C9.37895 12.7165 9.22417 12.412 9.14257 12.1938C8.78431 12.6187 8.5232 13.4126 8.56604 14.0351C8.56655 14.044 8.68997 14.9968 9.6138 14.9968C10.2984 14.9968 10.4644 14.5437 10.4833 14.1638C10.5103 13.617 10.1597 13.3378 9.7543 13.0167ZM9.61405 14.9094C8.77462 14.9094 8.66192 14.0375 8.66141 14.0281C8.62443 13.4867 8.82001 12.8093 9.11733 12.3778C9.21219 12.581 9.36263 12.8201 9.59773 13.0078L9.69208 13.0835C10.0947 13.4035 10.4129 13.6559 10.3882 14.1587C10.3627 14.6626 10.1098 14.9094 9.61405 14.9094Z" fill="#1D1D1B"/>
<path d="M10.6417 4.6847L10.3688 4.98871L10.3431 4.5947C10.3318 4.42571 10.2905 4.25484 10.2467 4.07483C10.0934 3.44503 9.90525 2.67108 10.6896 1.09811C7.9306 1.75275 3.89411 5.84516 4.09173 9.55575C4.182 11.2469 4.9513 13.2544 6.79539 14.2969C6.30963 13.7414 5.97866 13.042 5.85295 12.2772C5.52273 10.2697 6.71762 8.42647 7.94667 7.36985C8.90594 6.54644 9.94885 6.12572 10.6661 6.27151L10.8087 6.29963L10.7982 6.433C10.7898 6.54012 10.7266 6.66106 10.6378 6.82865C10.3086 7.46009 9.69488 8.63437 11.7463 9.89538C12.8557 10.5798 13.4376 11.3692 13.4743 12.2456C13.5052 12.9701 13.1559 13.6107 12.7996 14.0698C13.9451 13.3224 14.7037 12.2036 14.8862 10.9421C15.0923 9.52129 13.9634 8.52843 12.7675 7.47673C12.0293 6.82537 11.283 5.96587 11.68 3.96631C11.1374 4.13694 10.6468 4.67861 10.6417 4.6847ZM11.5553 4.10928C11.2154 6.039 11.9322 6.86287 12.7012 7.53931C13.8785 8.57718 14.9908 9.55575 14.7909 10.9302C14.6366 11.9976 14.0621 12.9659 13.1763 13.6842C13.4182 13.2699 13.5934 12.7795 13.57 12.2428C13.5315 11.3369 12.9358 10.5224 11.7993 9.82318C9.81702 8.60367 10.3849 7.51775 10.724 6.86756C10.8163 6.69083 10.8836 6.56379 10.8936 6.44121L10.9097 6.2319L10.6865 6.18549C9.78591 6.00243 8.41024 6.68192 7.33979 7.82526C6.08754 9.16409 5.51126 10.7914 5.75783 12.2899C5.85601 12.8871 6.07938 13.4503 6.40449 13.9388C4.89979 12.8487 4.26589 11.03 4.1871 9.55153C3.99662 5.97079 7.86125 2.01644 10.5182 1.23639C9.81906 2.71936 10.0032 3.47784 10.1536 4.09522C10.1959 4.27054 10.2367 4.43813 10.2472 4.59939L10.288 5.2184L10.7154 4.74049C10.7199 4.73439 11.1047 4.3125 11.5553 4.10928Z" fill="#1D1D1B"/>
<path d="M11.45 0.398459C10.5417 0.398459 9.27644 0.876375 8.03337 1.71244C5.75707 3.2451 3.35404 6.11822 3.43538 9.58997C3.53203 13.7199 6.70614 15.6013 9.61405 15.6013C12.6132 15.6013 15.1603 13.6327 15.5377 11.0218C15.7308 9.68935 14.9561 8.35357 13.2362 7.05061C11.7743 6.07931 12.3215 3.91216 12.5263 3.26385C12.2601 3.25307 11.72 3.28869 11.0445 3.64402L10.7926 3.77598L10.7921 3.50902C10.7875 2.0741 11.4954 0.873562 11.7993 0.424945C11.6897 0.408069 11.5729 0.398459 11.45 0.398459ZM9.61405 15.3067C8.6331 15.3067 8.2575 14.4627 8.2292 14.0529C8.17157 13.2124 8.58134 12.1649 9.1237 11.7663L9.34912 11.6005L9.39578 11.8626C9.39629 11.8689 9.4937 12.3963 9.88205 12.7083L9.97461 12.7809C10.4071 13.1252 10.8551 13.4806 10.8204 14.1772C10.7857 14.8846 10.3344 15.3067 9.61405 15.3067ZM7.91199 14.1015L7.97166 14.5295L7.62921 14.2365C7.04911 13.7351 6.64877 13.0059 6.50215 12.1809C6.09111 9.86936 8.2955 7.55478 9.54342 7.01334L9.88205 6.86592L9.77724 7.19664C9.37156 8.48108 9.88536 9.522 11.3475 10.377C12.3175 10.9445 12.8063 11.613 12.7996 12.3637C12.791 13.391 11.8371 14.2611 11.3765 14.5217L11.0647 14.6968L11.121 14.3651C11.2062 13.8638 11.196 13.3055 10.0786 12.4753C9.67703 12.1776 9.61405 11.3708 9.61099 10.9274C7.69423 12.0904 7.88267 13.8919 7.91199 14.1015ZM11.1391 0.952317C10.2385 2.61998 10.418 3.3569 10.5754 4.00686C10.5953 4.08749 10.6141 4.1653 10.6307 4.24265C10.9074 3.99889 11.3799 3.65316 11.8786 3.60957L12.1079 3.58941L12.0599 3.79591C11.5912 5.80812 12.2672 6.60692 13.0003 7.25219C14.2592 8.35967 15.4487 9.40691 15.22 10.9832C14.9783 12.6555 13.7923 14.0904 12.0479 14.8229L10.7732 15.3578L11.873 14.5609C11.8865 14.5513 13.19 13.5225 13.1367 12.2585C13.1044 11.4876 12.5724 10.7785 11.5581 10.1548C9.26318 8.74313 9.98608 7.3593 10.3331 6.69552C10.3579 6.64747 10.3836 6.59778 10.4058 6.55277C9.80478 6.53121 8.9572 6.92686 8.17591 7.59674C7.01009 8.59874 5.87488 10.3424 6.18545 12.2303C6.35783 13.2762 6.93946 14.187 7.78169 14.7301L8.7889 15.3786L7.6287 15.0027C4.93983 14.1322 3.86428 11.6268 3.75463 9.57145C3.69675 8.48389 3.94154 6.28252 6.23135 3.74317C7.70341 2.10949 9.56076 0.927237 10.9629 0.728711L11.2845 0.683474L11.1391 0.952317Z" fill="#1D1D1B"/>
<path d="M5.31492 14.4144C6.47946 15.3657 8.04663 15.9114 9.61405 15.9114C12.782 15.9114 15.4724 13.8268 15.8728 11.0633C16.0819 9.61739 15.2656 8.18552 13.4468 6.80943L13.4376 6.8031C11.9424 5.81492 12.8976 3.21017 12.9075 3.18392L12.9672 3.02383L12.7894 2.98188C12.7591 2.97532 12.0933 2.82836 11.1374 3.24861C11.2332 1.68337 12.1974 0.432914 12.2073 0.420491L12.3401 0.249623L12.1244 0.182822C11.1195 -0.13196 9.47483 0.358144 7.83396 1.46258C5.48908 3.04048 3.01363 6.00642 3.09778 9.59606C3.14495 11.6017 3.91171 13.268 5.31492 14.4144ZM10.7926 3.77598L11.0445 3.64402C11.72 3.28869 12.2601 3.25307 12.5263 3.26385C12.3215 3.91216 11.7743 6.07931 13.2362 7.05061C14.9561 8.35357 15.7308 9.68935 15.5377 11.0218C15.1603 13.6327 12.6132 15.6013 9.61405 15.6013C6.70614 15.6013 3.53203 13.7199 3.43538 9.58997C3.35404 6.11822 5.75707 3.2451 8.03337 1.71244C9.27644 0.876375 10.5417 0.398459 11.45 0.398459C11.5729 0.398459 11.6897 0.408069 11.7993 0.424945C11.4954 0.873562 10.7875 2.0741 10.7921 3.50902L10.7926 3.77598Z" fill="#1D1D1B"/>
<path d="M9.97461 12.7809L9.88205 12.7083C9.4937 12.3963 9.39629 11.8689 9.39578 11.8626L9.34912 11.6005L9.1237 11.7663C8.58134 12.1649 8.17157 13.2124 8.2292 14.0529C8.2575 14.4627 8.6331 15.3067 9.61405 15.3067C10.3344 15.3067 10.7857 14.8846 10.8204 14.1772C10.8551 13.4806 10.4071 13.1252 9.97461 12.7809ZM10.4833 14.1638C10.4644 14.5437 10.2984 14.9968 9.6138 14.9968C8.68997 14.9968 8.56655 14.044 8.56604 14.0351C8.5232 13.4126 8.78431 12.6187 9.14257 12.1938C9.22417 12.412 9.37895 12.7165 9.6602 12.941L9.7543 13.0167C10.1597 13.3378 10.5103 13.617 10.4833 14.1638Z" fill="#1D1D1B"/>
<path d="M9.61099 10.9274C9.61405 11.3708 9.67703 12.1776 10.0786 12.4753C11.196 13.3055 11.2062 13.8638 11.121 14.3651L11.0647 14.6968L11.3765 14.5217C11.8371 14.2611 12.791 13.391 12.7996 12.3637C12.8063 11.613 12.3175 10.9445 11.3475 10.377C9.88536 9.522 9.37156 8.48108 9.77724 7.19664L9.88205 6.86592L9.54342 7.01334C8.2955 7.55478 6.09111 9.86936 6.50215 12.1809C6.64877 13.0059 7.04911 13.7351 7.62921 14.2365L7.97166 14.5295L7.91199 14.1015C7.88267 13.8919 7.69423 12.0904 9.61099 10.9274ZM9.70253 10.5113C7.86839 11.4747 7.57872 12.9626 7.5573 13.7039C7.19394 13.2788 6.94175 12.7326 6.83517 12.1312C6.48405 10.1574 8.17412 8.18153 9.36161 7.46454C9.1107 8.72391 9.71605 9.79014 11.1662 10.6386C12.0316 11.1444 12.4671 11.7245 12.4618 12.3604C12.4562 13.0666 11.9115 13.7075 11.491 14.0515C11.4972 13.5598 11.2911 12.9764 10.2905 12.235C9.98889 12.01 9.92488 11.1458 9.95472 10.6541L9.97231 10.3688L9.70253 10.5113Z" fill="#1D1D1B"/>
<path d="M6.23135 3.74317C3.94154 6.28252 3.69675 8.48389 3.75463 9.57145C3.86428 11.6268 4.93983 14.1322 7.6287 15.0027L8.7889 15.3786L7.78169 14.7301C6.93946 14.187 6.35783 13.2762 6.18545 12.2303C5.87488 10.3424 7.01009 8.59874 8.17591 7.59674C8.9572 6.92686 9.80478 6.53121 10.4058 6.55277C10.3836 6.59778 10.3579 6.64747 10.3331 6.69552C9.98608 7.3593 9.26318 8.74313 11.5581 10.1548C12.5724 10.7785 13.1044 11.4876 13.1367 12.2585C13.19 13.5225 11.8865 14.5513 11.873 14.5609L10.7732 15.3578L12.0479 14.8229C13.7923 14.0904 14.9783 12.6555 15.22 10.9832C15.4487 9.40691 14.2592 8.35967 13.0003 7.25219C12.2672 6.60692 11.5912 5.80812 12.0599 3.79591L12.1079 3.58941L11.8786 3.60957C11.3799 3.65316 10.9074 3.99889 10.6307 4.24265C10.6141 4.1653 10.5953 4.08749 10.5754 4.00686C10.418 3.3569 10.2385 2.61998 11.1391 0.952317L11.2845 0.683474L10.9629 0.728711C9.56076 0.927237 7.70341 2.10949 6.23135 3.74317ZM12.7675 7.47673C13.9634 8.52843 15.0923 9.52129 14.8862 10.9421C14.7037 12.2036 13.9451 13.3224 12.7996 14.0698C13.1559 13.6107 13.5052 12.9701 13.4743 12.2456C13.4376 11.3692 12.8557 10.5798 11.7463 9.89538C9.69488 8.63437 10.3086 7.46009 10.6378 6.82865C10.7266 6.66106 10.7898 6.54012 10.7982 6.433L10.8087 6.29963L10.6661 6.27151C9.94885 6.12572 8.90594 6.54644 7.94667 7.36985C6.71762 8.42647 5.52273 10.2697 5.85295 12.2772C5.97866 13.042 6.30963 13.7414 6.79539 14.2969C4.9513 13.2544 4.182 11.2469 4.09173 9.55575C3.89411 5.84516 7.9306 1.75275 10.6896 1.09811C9.90525 2.67108 10.0934 3.44503 10.2467 4.07483C10.2905 4.25484 10.3318 4.42571 10.3431 4.5947L10.3688 4.98871L10.6417 4.6847C10.6468 4.67861 11.1374 4.13694 11.68 3.96631C11.283 5.96587 12.0293 6.82537 12.7675 7.47673Z" fill="#1D1D1B"/>
</svg>
