<svg xmlns="http://www.w3.org/2000/svg"  viewBox="0 0 50 50" width="100px" height="100px"><path d="M 23.529297 9 C 11.109297 9 1 16.4 1 25.5 C 1 34.6 11.109297 42 23.529297 42 L 28.490234 42 C 40.180234 41.24 49 34.15 49 25.5 C 49 17.45 41.360859 10.75 30.880859 9.25 C 30.860859 9.25 30.840312 9.2402344 30.820312 9.2402344 C 30.090312 9.1402344 29.330313 9.05 28.570312 9 L 28.490234 9 L 28.429688 9.9199219 L 28.359375 11 C 29.109375 11.05 29.850313 11.130234 30.570312 11.240234 C 30.640312 11.250234 30.719062 11.259297 30.789062 11.279297 C 36.119062 12.539297 40.150391 17.99 40.150391 24.5 C 40.150391 28.621 38.000234 35.999031 31.115234 38.957031 C 29.877234 39.489031 28.62925 40 27.28125 40 L 24.509766 40 C 14.869766 40 7.890625 34.089375 7.890625 30.109375 C 7.890625 26.139375 15 20.999531 26 21.019531 L 26 9 L 23.529297 9 z M 26 22.029297 C 19.9 22.359297 13.720703 25.790078 13.720703 30.580078 C 13.720703 35.270078 17.9 38.610703 24 38.970703 C 24.35 38.990703 24.719844 39 25.089844 39 L 26 39 L 26 22.029297 z"/></svg>